<svg width="49" height="38" viewBox="0 0 49 38" fill="none" xmlns="http://www.w3.org/2000/svg">
<path d="M0.883545 11.2703V9.79332C0.883545 8.56976 1.87541 7.5779 3.09896 7.5779H36.3302V3.14707C36.3302 1.1747 38.7209 0.189303 40.1122 1.58049L47.4969 8.96522C48.362 9.83043 48.362 11.2332 47.4969 12.0983L40.1122 19.483C38.7262 20.8687 36.3302 19.8971 36.3302 17.9165V13.4857H3.09896C1.87541 13.4857 0.883545 12.4938 0.883545 11.2703ZM45.9303 25.3012H12.6991V20.8704C12.6991 18.9029 10.3118 17.9091 8.91711 19.3038L1.53238 26.6885C0.667265 27.5538 0.667265 28.9565 1.53238 29.8216L8.91711 37.2063C10.3043 38.5935 12.6991 37.6187 12.6991 35.6398V31.209H45.9303C47.1539 31.209 48.1458 30.2172 48.1458 28.9936V27.5167C48.1458 26.2931 47.1539 25.3012 45.9303 25.3012Z" fill="white"/>
</svg>
