<svg width="52" height="39" viewBox="0 0 52 39" fill="none" xmlns="http://www.w3.org/2000/svg">
<path d="M49.3663 16.8111C50.5454 18.3533 50.5454 20.4354 49.3663 21.9751C45.6525 26.8232 36.7424 36.8055 26.3397 36.8055C15.937 36.8055 7.02685 26.8232 3.31304 21.9751C2.73938 21.2367 2.42798 20.3282 2.42798 19.3931C2.42798 18.458 2.73938 17.5496 3.31304 16.8111C7.02685 11.963 15.937 1.98071 26.3397 1.98071C36.7424 1.98071 45.6525 11.963 49.3663 16.8111V16.8111Z" stroke="white" stroke-width="3" stroke-linecap="round" stroke-linejoin="round"/>
<path d="M26.3406 26.8555C30.462 26.8555 33.8031 23.5144 33.8031 19.393C33.8031 15.2716 30.462 11.9305 26.3406 11.9305C22.2192 11.9305 18.8782 15.2716 18.8782 19.393C18.8782 23.5144 22.2192 26.8555 26.3406 26.8555Z" stroke="white" stroke-width="3" stroke-linecap="round" stroke-linejoin="round"/>
</svg>
