<svg width="349" height="527" viewBox="0 0 349 527" fill="none" xmlns="http://www.w3.org/2000/svg">
<path fill-rule="evenodd" clip-rule="evenodd" d="M323.638 0.862976C336.709 0.862976 347.305 11.4517 347.305 24.5134V95.2687H348.165V136.539H347.305V405.735C347.305 418.797 336.709 429.385 323.638 429.385H168.06C154.989 429.385 144.393 418.797 144.393 405.735V151.499H143.533V125.705H144.393V111.605H143.533V85.8109H144.393V69.9906H143.533V56.2338H144.393V24.5134C144.393 11.4517 154.989 0.862976 168.06 0.862976H323.638Z" fill="white"/>
<path fill-rule="evenodd" clip-rule="evenodd" d="M200.441 49.187C214.986 49.187 226.777 60.9698 226.777 75.5044V154.239H227.734V200.163H226.777V499.716C226.777 514.251 214.986 526.033 200.441 526.033H27.3193C12.7741 526.033 0.983062 514.251 0.983062 499.716V216.81H0.0263672V188.108H0.983062V172.417H0.0263672V143.714H0.983062V126.11H0.0263672V110.802H0.983062V75.5044C0.983062 60.9698 12.7741 49.187 27.3193 49.187H200.441Z" fill="black"/>
<path fill-rule="evenodd" clip-rule="evenodd" d="M30.0685 54.3534C16.964 54.3534 6.34082 64.9766 6.34082 78.0809V496.756C6.34082 509.861 16.964 520.484 30.0685 520.484H197.883C210.987 520.484 221.611 509.861 221.611 496.756V78.0809C221.611 64.9766 210.987 54.3534 197.883 54.3534H30.0685Z" fill="#5E4DCD"/>
</svg>
