<svg width="48" height="49" viewBox="0 0 48 49" fill="none" xmlns="http://www.w3.org/2000/svg">
<circle cx="24.2952" cy="24.3931" r="22.6311" stroke="white" stroke-width="2"/>
<path d="M34.0073 20.2553C33.6985 19.5571 33.2533 18.9243 32.6966 18.3924C32.1395 17.859 31.4826 17.4351 30.7617 17.1438C30.0141 16.8405 29.2124 16.6852 28.4029 16.687C27.2673 16.687 26.1593 16.9908 25.1964 17.5645C24.9661 17.7017 24.7473 17.8525 24.5399 18.0167C24.3326 17.8525 24.1138 17.7017 23.8835 17.5645C22.9206 16.9908 21.8126 16.687 20.677 16.687C19.8593 16.687 19.0669 16.84 18.3182 17.1438C17.5949 17.4362 16.943 17.857 16.3833 18.3924C15.8258 18.9237 15.3805 19.5566 15.0726 20.2553C14.7524 20.982 14.5889 21.7538 14.5889 22.548C14.5889 23.2972 14.7455 24.0779 15.0565 24.8721C15.3168 25.5358 15.6899 26.2243 16.1668 26.9195C16.9223 28.0197 17.9612 29.1671 19.2511 30.3303C21.3888 32.2584 23.5057 33.5904 23.5955 33.6444L24.1414 33.9864C24.3833 34.1371 24.6943 34.1371 24.9361 33.9864L25.4821 33.6444C25.5719 33.5881 27.6865 32.2584 29.8265 30.3303C31.1164 29.1671 32.1553 28.0197 32.9108 26.9195C33.3877 26.2243 33.7631 25.5358 34.0211 24.8721C34.3321 24.0779 34.4887 23.2972 34.4887 22.548C34.491 21.7538 34.3275 20.982 34.0073 20.2553Z" fill="white"/>
</svg>
