<svg width="103" height="27" viewBox="0 0 103 27" fill="none" xmlns="http://www.w3.org/2000/svg">
<path d="M3.756 26.8795L18.768 26.5195V21.4795L6.42 21.8395V1.13953H0.66V23.8555C0.66 25.8355 1.776 26.9155 3.756 26.8795ZM18.4055 13.8115C18.4055 21.2275 23.3015 26.8795 31.3655 26.8795C39.3935 26.8795 44.2895 21.2275 44.2895 13.8115C44.2895 6.43153 39.3935 0.77953 31.3655 0.77953C23.3015 0.77953 18.4055 6.43153 18.4055 13.8115ZM24.1655 13.8115C24.1655 8.95153 26.5775 5.81953 31.3655 5.81953C36.1535 5.81953 38.5295 8.95153 38.5295 13.8115C38.5295 18.7075 36.1535 21.8395 31.3655 21.8395C26.5775 21.8395 24.1655 18.7075 24.1655 13.8115ZM46.8117 13.8115C46.8117 21.5875 50.9877 26.8795 58.5837 26.8795C65.5677 26.8795 68.6997 21.7675 68.7357 13.8115H70.1757L69.0957 17.7715V26.5195H74.8557V15.4315C74.8557 13.4515 73.7757 12.3715 71.7957 12.3715H58.5477V16.6915H64.4157C64.4157 20.1115 62.2557 21.8395 58.7997 21.8395C54.6237 21.8395 52.5717 19.4275 52.5717 13.8115C52.5717 8.23153 55.1637 5.81953 59.5917 5.81953C63.4077 5.81953 65.3157 7.22353 65.8917 10.2115H71.6517C70.8957 4.66753 65.9637 0.77953 59.5917 0.77953C52.2477 0.77953 46.8117 6.07153 46.8117 13.8115ZM77.0109 13.8115C77.0109 21.2275 81.9069 26.8795 89.9709 26.8795C97.9989 26.8795 102.895 21.2275 102.895 13.8115C102.895 6.43153 97.9989 0.77953 89.9709 0.77953C81.9069 0.77953 77.0109 6.43153 77.0109 13.8115ZM82.7709 13.8115C82.7709 8.95153 85.1829 5.81953 89.9709 5.81953C94.7589 5.81953 97.1349 8.95153 97.1349 13.8115C97.1349 18.7075 94.7589 21.8395 89.9709 21.8395C85.1829 21.8395 82.7709 18.7075 82.7709 13.8115Z" fill="#5E4DCD"/>
</svg>
