<svg id="Слой_1" data-name="Слой 1" xmlns="http://www.w3.org/2000/svg" viewBox="0 0 780.77 321.6"><defs><style>.cls-1,.cls-5{fill:#f4f4f4;}.cls-2,.cls-6{fill:#5e4dcd;}.cls-3{fill:#f9f9f9;}.cls-3,.cls-5,.cls-6{fill-rule:evenodd;}.cls-4{fill:#00447e;}</style></defs><g id="Слой_1-2" data-name="Слой 1"><rect class="cls-1" x="172.77" y="186.22" width="608" height="124"/><path class="cls-1" d="M331,326.51h35.1a49,49,0,0,1,22.2,4.8,36.38,36.38,0,0,1,15,13.5c3.6,5.8,5.3,12.6,5.3,20.3a38.63,38.63,0,0,1-5.3,20.3,36.38,36.38,0,0,1-15,13.5,49,49,0,0,1-22.2,4.8H331Zm34.1,62.5c7.7,0,13.9-2.2,18.5-6.5s6.9-10.1,6.9-17.5-2.3-13.2-6.9-17.5-10.8-6.5-18.5-6.5h-16.3v48Z" transform="translate(-105.7 -249.8)"/><path class="cls-1" d="M421.67,333.31a9.21,9.21,0,0,1,0-13.6,11.2,11.2,0,0,1,7.7-2.8,11.38,11.38,0,0,1,7.7,2.6,8.54,8.54,0,0,1,3,6.6,9.29,9.29,0,0,1-3,7.1,10.75,10.75,0,0,1-7.7,2.8A10.27,10.27,0,0,1,421.67,333.31Zm-.9,11.1H438v59.3h-17.2Z" transform="translate(-105.7 -249.8)"/><path class="cls-1" d="M515.17,344.41v49.4c0,10.9-2.8,19-8.5,24.3s-13.9,7.9-24.8,7.9a61.7,61.7,0,0,1-16.3-2.1,35.45,35.45,0,0,1-12.8-6.1l6.8-12.4a27.48,27.48,0,0,0,9.5,4.9,37.83,37.83,0,0,0,11.5,1.8c6,0,10.3-1.3,13.2-4s4.2-6.7,4.2-12.2v-2.5c-4.5,4.9-10.7,7.4-18.7,7.4a31.25,31.25,0,0,1-14.9-3.6,27.5,27.5,0,0,1-14.8-25.1,27.58,27.58,0,0,1,4-15,27,27,0,0,1,10.8-10.1,31.25,31.25,0,0,1,14.9-3.6c8.6,0,15.1,2.8,19.6,8.5v-7.6h16.3Zm-21.3,38.3a14.73,14.73,0,0,0,0-21c-2.9-2.7-6.6-4-11.2-4s-8.3,1.3-11.2,4a14.73,14.73,0,0,0,0,21,15.86,15.86,0,0,0,11.2,4C487.27,386.71,491,385.41,493.87,382.71Z" transform="translate(-105.7 -249.8)"/><path class="cls-1" d="M532.07,333.31a9.21,9.21,0,0,1,0-13.6,11.2,11.2,0,0,1,7.7-2.8,11.38,11.38,0,0,1,7.7,2.6,8.54,8.54,0,0,1,3,6.6,9.29,9.29,0,0,1-3,7.1,10.75,10.75,0,0,1-7.7,2.8A10.27,10.27,0,0,1,532.07,333.31Zm-.9,11.1h17.2v59.3h-17.2Z" transform="translate(-105.7 -249.8)"/><path class="cls-1" d="M602.67,400.81a16.81,16.81,0,0,1-6.2,2.8,33.31,33.31,0,0,1-7.8.9c-7.1,0-12.5-1.8-16.4-5.4s-5.8-8.9-5.8-15.9v-24.4h-9.2v-13.2h9.2v-14.4h17.2v14.4h14.8v13.2h-14.8V383a8.12,8.12,0,0,0,1.9,5.8,7,7,0,0,0,5.5,2,10.76,10.76,0,0,0,6.9-2.2Z" transform="translate(-105.7 -249.8)"/><path class="cls-1" d="M657.47,350c4.9,4.4,7.4,11,7.4,19.8v33.9h-16.1v-7.4c-3.2,5.5-9.3,8.3-18.1,8.3a29,29,0,0,1-11.9-2.3,18.1,18.1,0,0,1-7.7-6.4,16.31,16.31,0,0,1-2.6-9.3,15.49,15.49,0,0,1,6.2-13c4.2-3.2,10.6-4.7,19.2-4.7h13.7c0-3.7-1.1-6.6-3.4-8.7s-5.7-3-10.3-3a29.22,29.22,0,0,0-9.3,1.5,24.93,24.93,0,0,0-7.8,4l-6.2-12a37.59,37.59,0,0,1,11.6-5.3,54.35,54.35,0,0,1,14-1.9C645.47,343.51,652.57,345.71,657.47,350Zm-14.7,41a11.66,11.66,0,0,0,4.9-6v-6.1h-11.8c-7.1,0-10.6,2.3-10.6,6.9a6.09,6.09,0,0,0,2.6,5.2c1.7,1.3,4.1,1.9,7.1,1.9A14.58,14.58,0,0,0,642.77,391Z" transform="translate(-105.7 -249.8)"/><path class="cls-1" d="M680.37,321.91h17.2v81.8h-17.2Z" transform="translate(-105.7 -249.8)"/><path class="cls-2" d="M338.57,534.91c-5.7-1.7-10.3-3.8-13.7-6.5l6.1-13.5a39.39,39.39,0,0,0,11.8,5.8,43.6,43.6,0,0,0,13.7,2.2c5.1,0,8.8-.8,11.2-2.3a6.82,6.82,0,0,0,3.6-6,5.68,5.68,0,0,0-2.2-4.6,16.87,16.87,0,0,0-5.5-2.9c-2.2-.7-5.3-1.5-9.1-2.4a120.51,120.51,0,0,1-14.4-4.2,23,23,0,0,1-9.6-6.7c-2.7-3.1-4-7.2-4-12.4a21.81,21.81,0,0,1,3.6-12.2c2.4-3.6,6.1-6.5,11-8.7a45.47,45.47,0,0,1,17.9-3.2,58,58,0,0,1,14.4,1.8,44.81,44.81,0,0,1,12.4,5.1l-5.5,13.6c-7.1-4-14.3-6.1-21.4-6.1q-7.5,0-11.1,2.4a7.32,7.32,0,0,0-3.6,6.4c0,2.6,1.4,4.6,4.1,5.9a62.57,62.57,0,0,0,12.6,3.8,120.51,120.51,0,0,1,14.4,4.2,23.66,23.66,0,0,1,9.6,6.6c2.7,3,4,7.1,4,12.2a21,21,0,0,1-3.7,12.1,26.08,26.08,0,0,1-11.1,8.7c-4.9,2.1-10.9,3.2-18,3.2A57.69,57.69,0,0,1,338.57,534.91Z" transform="translate(-105.7 -249.8)"/><path class="cls-2" d="M411.47,533a28.38,28.38,0,0,1-11.6-10.9,30.23,30.23,0,0,1,11.6-42.5,38.13,38.13,0,0,1,33.6,0,29,29,0,0,1,11.6,10.9,30.23,30.23,0,0,1-11.6,42.5,35.29,35.29,0,0,1-16.8,3.9A35.86,35.86,0,0,1,411.47,533Zm27.7-14.7q4.2-4.5,4.2-12t-4.2-12a15.45,15.45,0,0,0-21.8,0c-2.8,3-4.3,7-4.3,12s1.4,9,4.3,12a14.48,14.48,0,0,0,10.9,4.5A14.33,14.33,0,0,0,439.17,518.31Z" transform="translate(-105.7 -249.8)"/><path class="cls-2" d="M472.27,454.21h17.2V536h-17.2Z" transform="translate(-105.7 -249.8)"/><path class="cls-2" d="M565.27,476.71V536H549v-7a23,23,0,0,1-8.2,5.9,25.24,25.24,0,0,1-10.3,2c-7.8,0-14-2.2-18.5-6.7s-6.8-11.1-6.8-20v-33.5h17.2v31c0,9.6,4,14.3,12,14.3a12.82,12.82,0,0,0,9.9-4c2.5-2.7,3.8-6.7,3.8-12v-29.3Z" transform="translate(-105.7 -249.8)"/><path class="cls-2" d="M619.57,533.21a16.81,16.81,0,0,1-6.2,2.8,33.31,33.31,0,0,1-7.8.9c-7.1,0-12.5-1.8-16.4-5.4s-5.8-8.9-5.8-15.9v-24.4h-9.2V478h9.2v-14.4h17.2V478h14.8v13.2h-14.8v24.2a8.12,8.12,0,0,0,1.9,5.8,7,7,0,0,0,5.5,2,10.76,10.76,0,0,0,6.9-2.2Z" transform="translate(-105.7 -249.8)"/><path class="cls-2" d="M630.07,465.71a9.21,9.21,0,0,1,0-13.6,11.2,11.2,0,0,1,7.7-2.8,11.38,11.38,0,0,1,7.7,2.6,8.54,8.54,0,0,1,3,6.6,9.29,9.29,0,0,1-3,7.1,10.75,10.75,0,0,1-7.7,2.8A11.13,11.13,0,0,1,630.07,465.71Zm-.8,11h17.2V536h-17.2Z" transform="translate(-105.7 -249.8)"/><path class="cls-2" d="M673.87,533a28.38,28.38,0,0,1-11.6-10.9,30.23,30.23,0,0,1,11.6-42.5,38.13,38.13,0,0,1,33.6,0,29,29,0,0,1,11.6,10.9,30.23,30.23,0,0,1-11.6,42.5,38.13,38.13,0,0,1-33.6,0Zm27.6-14.7q4.2-4.5,4.2-12t-4.2-12a15.45,15.45,0,0,0-21.8,0c-2.8,3-4.3,7-4.3,12s1.4,9,4.3,12a14.48,14.48,0,0,0,10.9,4.5A14.33,14.33,0,0,0,701.47,518.31Z" transform="translate(-105.7 -249.8)"/><path class="cls-2" d="M788.57,482.41c4.5,4.4,6.8,11,6.8,19.6v34h-17.2v-31.3c0-4.7-1-8.2-3.1-10.5s-5-3.5-8.9-3.5c-4.3,0-7.8,1.3-10.4,4s-3.9,6.7-3.9,12V536h-17.2v-59.3h16.4v6.9a23.37,23.37,0,0,1,8.5-5.8,28.83,28.83,0,0,1,11.1-2C778.07,475.81,784,478,788.57,482.41Z" transform="translate(-105.7 -249.8)"/><path class="cls-2" d="M816.37,535.11a34.66,34.66,0,0,1-11.2-4.6l5.7-12.4a32.67,32.67,0,0,0,9.6,4.1,39,39,0,0,0,11,1.6c7.3,0,10.9-1.8,10.9-5.4q0-2.55-3-3.6a44.72,44.72,0,0,0-9.2-1.9,88.09,88.09,0,0,1-12-2.5,18.1,18.1,0,0,1-8.2-5.1c-2.3-2.4-3.5-5.9-3.5-10.4a16,16,0,0,1,3.3-10,20.84,20.84,0,0,1,9.5-6.8,41.19,41.19,0,0,1,14.7-2.4,58.41,58.41,0,0,1,12.5,1.4,34.17,34.17,0,0,1,10.3,3.8l-5.7,12.2a34.56,34.56,0,0,0-17.1-4.4c-3.7,0-6.4.5-8.3,1.5s-2.8,2.4-2.8,4q0,2.7,3,3.9a59,59,0,0,0,9.5,2.1,101.54,101.54,0,0,1,11.9,2.6,18.12,18.12,0,0,1,8.1,5c2.3,2.4,3.4,5.8,3.4,10.1a15.67,15.67,0,0,1-3.3,9.8,21,21,0,0,1-9.6,6.7,42.33,42.33,0,0,1-15.1,2.4A53.56,53.56,0,0,1,816.37,535.11Z" transform="translate(-105.7 -249.8)"/><path class="cls-1" d="M300.27,553.81a48.14,48.14,0,0,1-1.3-6.6l.3.3c-.2-1.4-.5-2.9-.7-4.3-2-12.9-4-25.7-6-38.6v-.1a107,107,0,0,1-35.5-35.5,122.19,122.19,0,0,1-13.4-32c-3.4-13.2-4.8-28.9.2-44.5a55.73,55.73,0,0,1,13.8-23c9-12.9,20-23.9,30.6-35.6.1-.1.2-.3.4-.4,12-12.8,16.8-30.9,15.7-48.2-.7-11-6-43.5-23.5-33.7-2.3,1.3-20.9,21.5-20.6,22.2-2.2-4.9-6.1-8.8-10-10-.7-.2-.9.3-.9.5a96.39,96.39,0,0,1-12.3,41.4,145.7,145.7,0,0,1-12.9,18.1c-1.1-4.3-2-12.2,4.9-18.5a.68.68,0,0,0-.2-1.1c-3.9-2.4-10.1-9.4-10.3-13.8A7,7,0,0,1,225,283a.6.6,0,0,0,.3-1.1c-4.8-4.6-10.8-6.6-16.6-8.7,1.6-2.3,4.9-10.2,4.2-18.3.1-.7-.8-.9-1.2-.4-8.1,8.9-14.4,10.9-26.9,12-7.5.6-12.1,1.6-16.4,8.8-5.5-.3-14.6,2.9-18.9,12.6-2.2,5-2.6,11.1,1.1,17.9a.71.71,0,0,0,1.1.1c12.5-11.5,29.2-.9,27,14-1.6,12.7-5.3,24.9-12.3,35.6-11.8,18.1-4.2,42.4,6.1,66.1,4.6,10.6,9.7,20.7,13,31.7a91.93,91.93,0,0,1,3.3,14.7c.8,6.3.7,12.8-2.6,18.3a19.12,19.12,0,0,1-2.7,3.5c-2.8,2.7-5.9,3-9.5.6-1.8-1.2-3.7-2-5.2-3.1-4.1-3.1-9.5-1.5-9.2,4.3-1.8,0-3.5.3-4.4,1.2a138.82,138.82,0,0,1-15.3-15.1c-5.3-5.6-8.1-11.1-1.3-15.8,13.3-2,24.4-10.7,29.1-18.8,1.6-2.7,2.7-5.2,2.8-7.4,1.2-12.6-7.7-18.5-16.8-19.1a66,66,0,0,0-9.9.2c-3.7.4-7,1.6-10.6.3-5.8-2-6.7-6.6-6.6-9.7-13.1,2.9-15.7,23.4,1.2,27.1l-8.3,1.1c-6.4-1.2-10.1-5.1-9.1-11.7-6,5.6-5.7,13.3-2,18.1,2.6,4.1,7.4,6.4,14,5.7,7.1-.7,14.4-3.9,19.6-3.4,9,.9,8.9,12.3.1,13.4-5.5.7-12.4,2-13.4,7.8-2.3,8-9.8,19.7-16.9,24.7a9.35,9.35,0,0,0-2.4,13.6c16.7,21.4,39.4,39,65.1,51.1,35.9,16.3,78.2,21.5,119.1,11.1.3-.1.6-.1.9-.2,6.4-3,6.9-7.5,5.8-11.3C300.37,554.31,300.27,554,300.27,553.81Zm-69.4-52.7a47.93,47.93,0,0,1-.6,6.9,48.77,48.77,0,0,1-1.7,7.9,2.42,2.42,0,0,1-4.5.1,6.11,6.11,0,0,0-5.5-3.7A7.22,7.22,0,0,0,213,515c-3.8-2.1-10.1-.7-9.9,7a151.44,151.44,0,0,1-15.2-7.2c6.9-1.6,12-5,14.9-10a21.9,21.9,0,0,0,2.7-14.7.65.65,0,0,1,1-.7c1.5.8,2.9,1.5,4.4,2.3a.61.61,0,0,0,.9-.4c3.7-9.2.6-28.3-4.6-38.7-.4-.6.4-1.2.9-.8,14.6,10.2,20.5,26.2,22.2,40.1A60.72,60.72,0,0,1,230.87,501.11Z" transform="translate(-105.7 -249.8)"/><path class="cls-3" d="M287.88,535.41l.7,4.6c.7,5,2.1,11,3.1,15.9.7,3.5-1.7,6.3-3.8,6.4-20.7,5.7-42.5,6.6-68.8,3.6-32.1-5.1-61.8-17.9-86-37.8a150.31,150.31,0,0,1-19.9-19.2c-1.8-2.2-3.9-4.2-5.6-6.5-2.5-3.3-1.7-5.8-.5-7.6a10.43,10.43,0,0,1,2.1-2.1c5.6-5,11.8-13.6,14.5-18.5a24.35,24.35,0,0,0,2.2-4.6c.8,3.6,3.5,6.8,6.8,10.7,5.2,6.4,12.3,12.6,17.1,16.8a42.39,42.39,0,0,0,6.2,10.1c.3-.9.6-2.9,1.7-3.9a67.28,67.28,0,0,0,9.3,6.5,62.94,62.94,0,0,0,4.5,6.4c.3-.2.3-.7,1-2.8a145.83,145.83,0,0,0,26.2,12.6,15.44,15.44,0,0,0,4.9,6.1,20.36,20.36,0,0,1,1.6-3.4c.5.2.9.3,1.4.5l.2.2c1.3,2.6,2.1,4.6,4.7,7.2.4-1.4.5-4.1,1.1-5.5a28,28,0,0,1,3.1.9c2.1,3.4,4.5,7,7.7,8a11.43,11.43,0,0,1,.9-6.1c5.3,1.5,18.2,3.1,23.7,3.4A178.88,178.88,0,0,0,287.88,535.41Z" transform="translate(-105.7 -249.8)"/><path class="cls-2" d="M160.57,495.41c-2.8,1.1-.3,4.9.1,6.7.5-2.4,1.6-2.5,2.3-4.1C163.17,495.91,161.67,494.91,160.57,495.41Z" transform="translate(-105.7 -249.8)"/><path class="cls-2" d="M173.77,500.51c-.9,2.1.1,4.7,1.9,8.8.4-4.8,1-6.6,1.6-7.9C178.57,498.11,174.67,498.31,173.77,500.51Z" transform="translate(-105.7 -249.8)"/><path class="cls-2" d="M213.67,332.11c-.1.4.2,1.1,1.1.7l3-2.7c1-.9,1.9-1.8,2.8-2.7.3-.4.6-.3.4-1.1-3.7-9.9-1-16.9,1.8-20.4.3-.4.2-.7-.2-1a17,17,0,0,1-6-7.1c0-.4-1.3-.7-1.2.4C216.77,310.41,215.37,322.41,213.67,332.11Z" transform="translate(-105.7 -249.8)"/><path class="cls-2" d="M203,345.41c5.2-8,10-21.4,7-32.2a.68.68,0,0,0-1.3-.1c-4,12.9-26.7,29.2-35,37.3-10.2,8.3-10.8,29.8-4.7,39.9a.64.64,0,0,0,1.2-.4c-1.3-8.7-.8-25.2,7.1-32.8.9-.6,1.3.6,1,.8-2.9,7.1-2.3,15.2-1.5,20.5a.67.67,0,0,0,1.3.1c2.8-8.7,8.6-14.7,14.6-21C196.07,353.71,200.07,349.71,203,345.41Z" transform="translate(-105.7 -249.8)"/><path class="cls-2" d="M169.47,289a14,14,0,0,0,1.5-3,.64.64,0,0,1,1.2-.1c1.1,1.8.4,5.6.1,7.3,0,.5,0,.5.4.8,1,.5,3.2.6,6.7-.5a.64.64,0,0,1,.8.6c.1,3.2-1.4,5.9-2,8.7a.66.66,0,0,0,1,.7,20.28,20.28,0,0,1,1.8-1.3,2.81,2.81,0,0,1,4.1,1.9c.9,4.4-.1,10.3-1,14.9a.66.66,0,0,0,1.2.5,23.31,23.31,0,0,0,5.5-15.4.66.66,0,0,1,1.2-.4c1.4,1.6,1.8,3.2,1.7,6.8a.64.64,0,0,0,1.2.3c2.1-3.9,2.4-8.1,1.9-12.5a.63.63,0,0,1,1.1-.5c2.1,2.1,2.6,4.7,3.2,7.8a.65.65,0,0,0,1.3,0c1.2-6.2.8-11.1-1.3-15a.65.65,0,0,1,.9-.9c2.3,1.4,4.4,4.4,6.4,9a.63.63,0,0,0,1.2-.3,19.42,19.42,0,0,0-3.1-11.3c-1.2-1.9-1.7-2.9,1-4.3a9.72,9.72,0,0,1,5.9-.7c.8.2,1-.8.5-1.2-6.3-4-13.7-4.4-18.7-4,5.7-3.2,10.1-5,12.8-13.8.3-.5-.5-1.1-1-.8-8.2,5.9-17,6.4-22.6,6.3a12.42,12.42,0,0,0-4.3.7c-4.5,2-3.2,5.9,1.6,6.1,3.8.2,9.3-1.4,13.2-3a.65.65,0,0,1,.5,1.2,46.28,46.28,0,0,1-5.2,2.4c-2.3.9-3.7,2.4-2.2,4.6.2.3.4.6.7,1,.2.2,0,1.3-.9.8a54.48,54.48,0,0,0-7.6-3.9,2.41,2.41,0,0,0-3.2,3.1,2.22,2.22,0,0,0,2.1,1.5,3.27,3.27,0,0,1-3.2-.9l-.4-.4a3.63,3.63,0,0,0-.9-.8,10.74,10.74,0,0,0-8.7-3.5c-7.7.5-13.6,8.1-10.9,18.2a.63.63,0,0,0,1.1.3c1.1-1,2.5-1.7,6-2.3C165.37,292.81,167.87,291.41,169.47,289Z" transform="translate(-105.7 -249.8)"/><path class="cls-2" d="M240,502.61a.65.65,0,0,1,1-.8,23.43,23.43,0,0,0,8.8,4.6.66.66,0,0,0,.5-1.2,30.62,30.62,0,0,1-10.6-12.3.65.65,0,0,1,.9-.9c2.8,2.1,7.4,4.4,10.3,4.7.5,0,.8-.3.7-.8-.7-2.6-2.7-6.5-5.4-10.9-3.2-5.2-8.3-14.2-13-17.7a2.42,2.42,0,0,0-3.9,2.6,5.89,5.89,0,0,1,.7,1.4,49.74,49.74,0,0,1,2,5.1,69.11,69.11,0,0,1,3.5,26.2c-.6,5.9,1.6,7.9,2.6,10,2.6,5.2-2.6,6.2-5.6,6.7-4.2.6-5.2,4.4-1.3,8.1a5.9,5.9,0,0,0,3.5,1.5c2.5.4,5,.9,7.4,1.3a11.62,11.62,0,0,0,4.5-.2c2.6-.7,5-2.4,5.6-7,.2-3.5-4.6-8.8-8.3-13.9A33.31,33.31,0,0,1,240,502.61Z" transform="translate(-105.7 -249.8)"/><path class="cls-2" d="M194.37,474.91a.66.66,0,0,0-1.3.1c-.4,8.5-1.4,13-5.7,17.2-.3.4-.3.5-.1,1,5,4.6,2.6,10.6,1.8,15.8,0,.5.1.8.9.7,7.2-2.5,11.1-10.5,10.9-15.8a18.7,18.7,0,0,0-2.9-10.1A37,37,0,0,1,194.37,474.91Z" transform="translate(-105.7 -249.8)"/><path class="cls-2" d="M237.67,445.81c-6-3.1-10.3-7.2-11.4-11.6a2.92,2.92,0,0,1-.2-.9.69.69,0,0,1,.9-.5c1.8.6,5.4,1.9,9.5.9.5-.2,1-.7.3-1.3-3.9-2-13-7.6-19.1-13.8-7.6-7.7-9.8-19.7-6.8-30.1,7.2-25.1,44.6-39.2,66.7-63.5,6.9-7.6,13.8-17.6,15.1-25a.64.64,0,0,0-1.2-.4c-.9,1.4-2.4,7.8-6.1,10.8-.5.6-.9.4-1.2-.1a10.1,10.1,0,0,0-1.4-2.5c-1-.8-1.4.4-1,.8-.8,4.2-3.6,11.1-5.4,12.2a.72.72,0,0,1-1.1-.4,6.31,6.31,0,0,1-.8-2.2c-.6-.7-1-.3-1.2.1-1,3.1-4.4,10.4-7,12.1-.7.4-1,.7-1.4-.2-.4-.7-.2-1.9-.3-2.7s-1-.8-1.2-.1c-.5,2-4.2,8.7-8,11.7-.1.3-1,.9-1.2-.2-.2-.8.4-2.6.3-3.5s-.9-1-1.2-.2c-.9,1.7-4,7.9-9,12.4-.2.3-1.1.8-1.2-.2a36,36,0,0,0,.4-3.6c-.2-1-.9-.9-1.2-.4-2.7,4.3-10.6,13.6-16.6,16-.9.3-1.3-.4-.9-1,12.6-19.7,35.8-27.5,53-49.6,4.8-6.1,14.1-20.8,15.1-29a.66.66,0,0,0-1.2-.5c-2,6.9-5.1,13-7.9,16-.4.6-1.3.4-1.2-.2.3-1.8.9-5,.7-5,.2-.6-.8-1.2-1.2-.5a51.53,51.53,0,0,1-7.1,17.9.67.67,0,0,1-1.3-.3c-.1-1.9.6-3.3-.1-4.6a.67.67,0,0,0-1.3.2c-1.7,7.2-3.1,10.6-7.4,15.2a.65.65,0,1,1-1-.8,18.32,18.32,0,0,0,.7-4.2c0-1-1.1-.7-1.2-.2-1,3.3-6,12-9.7,15-.8.6-1.5-.1-1-.8a12.93,12.93,0,0,0,2-4.7c.3-.5-.4-1-.9-.7-3.3,5.6-9.1,13.5-16.3,15.3-.4.6-1.6.1-1-.9,15.5-21.1,31.4-22.5,44.3-52.7,2.4-6.1,4.3-9.8,4.2-17.8a.67.67,0,0,0-1.3-.2,64.94,64.94,0,0,1-4.2,10.6c-.4.6-1.2.5-1.3-.2a26,26,0,0,0-1.8-4.6c-.7-.7-1.1-.1-1.2.3.1,2.1.8,9.8-2.5,15.6a.67.67,0,0,1-1.3-.3c.1-2.6-.4-6.3-1.7-7.8a.63.63,0,0,0-1.1.3c.3,5.3.7,12.9-5.2,20.2-.5.7-1.4.2-1.2-.4,1.7-4.8,2.2-9.2,1.3-11.3-.2-.8-1.1-.8-1.3.1-1.4,6-6.8,20-13.7,26-.5.6-1.5.2-1.2-.6a171.09,171.09,0,0,0,9-18.2c1.8-5.2,2.1-17-2-22.4a.63.63,0,0,0-1.2.2c-2.6,15.8-8,31.1-16.7,42.9-16.8,23.9-32.6,35-36.9,67.6-2.5,19.1,2.8,39,17.6,53.3,6.6,6.4,10.6,8.6,20.3,10.2C237.87,447,238.27,446.21,237.67,445.81Z" transform="translate(-105.7 -249.8)"/><path class="cls-2" d="M243,470.31c.4.2,1.1-.3.9-.7a85.92,85.92,0,0,0-5.4-7.8c-6.7-8.5-15.6-12.4-23-19.8-20.4-20.4-23.2-39-20.6-64.4-.1-.9-.9-.9-1.2-.4-11.7,20.6-8.1,43.2,7.7,60.2,8.8,9.5,17.3,15,28.2,22.4A131.67,131.67,0,0,1,243,470.31Z" transform="translate(-105.7 -249.8)"/><path class="cls-4" d="M257.47,369.41c6.4-9.2,13.8-17.4,21.4-25.6l-5.9,4.7-5.8,5.4-5.3,5.7-4.8,6-4.3,6.3-3.7,6.6-3.1,6.8-1.3,3.5-1.1,3.6-1,3.6-.8,3.6-.6,3.7-.5,3.7-.3,3.8-.1,3.8.3,6.6.8,6.5,1.4,6.4.8,2.7c-3.4-13.2-4.8-28.9.2-44.5A57,57,0,0,1,257.47,369.41Z" transform="translate(-105.7 -249.8)"/><path class="cls-2" d="M290.77,317.21c2.2-2.7,12.1-20.7,4.9-26.1a.68.68,0,0,1-.4-.8,48,48,0,0,0,3.1-19.7c-.1-1.6-4.8.6-7.5,2.2a.63.63,0,0,1-1-.6,38.67,38.67,0,0,0-1-14.2.66.66,0,0,0-.8-.5c-13.1,2.9-18.2,11.3-26.8,20.4a20.21,20.21,0,0,1,.1,6.5c5-9.4,13.7-20.1,24.3-23a.63.63,0,0,1,.9.5c1.1,6.4-.2,15.1-3.3,21.8a.61.61,0,1,0,1,.7c2.2-3.1,5.9-8.1,10.1-9.8a.69.69,0,0,1,1,.6c.1,5.5-3.5,16.3-8.6,23.4-.6.9.4,1.4.9.9,3.7-3.8,5.9-6.3,6.8-5.5a8.8,8.8,0,0,1,.2,5.2c-1.6,9.3-7,17.7-13,24.8-9,10.7-21.5,19.7-33,28.4-9.3,7-21.4,14.6-27.9,24.5-7.8,11.9-7.6,26.8,1.5,37.3a.64.64,0,0,0,1-.8c-6-8.1-6.8-18.2-3.6-27.2,4-11.2,13.9-18.3,22.9-25.3C257.27,349.91,278.67,334.21,290.77,317.21Z" transform="translate(-105.7 -249.8)"/><path class="cls-5" d="M292.47,504.51c2,12.9,4,25.7,6,38.6-.1-.1-.2-.1-.3-.2-5.2-24.8-7.5-27-7.2-35.7A26.68,26.68,0,0,1,292.47,504.51Z" transform="translate(-105.7 -249.8)"/><path class="cls-6" d="M225.87,526c.8-3.3-5.9-3.5-5.5-.1.4,3.7,5.8,7.6,5.8,8.5C226.47,534.31,224.47,531.21,225.87,526Zm-8.4-5.2c-1.6-1.5-2.1-1.1-3.2-.3-2.1,2-.4,5.1,1.1,9C214.87,527.31,218.07,522.91,217.47,520.81Zm-9.2-2.9c-1,2.3-2.4,3.8-.3,8.5.8-3.4,3.6-6.2,3.3-7.4C212,517.51,209.37,517.11,208.27,517.91Z" transform="translate(-105.7 -249.8)"/><path class="cls-3" d="M263,541.81l.6,5.5h-2a4.79,4.79,0,0,0-.9-2.7,3.78,3.78,0,0,0-2.7-.8l-4.4.1.1,6.3h1.9a2.11,2.11,0,0,0,1.9-.7,3.58,3.58,0,0,0,.5-2.1h1.6l.1,7.3h-1.6a4,4,0,0,0-.5-2.2,2.51,2.51,0,0,0-2-.6h-1.9l.1,5a2.54,2.54,0,0,0,.5,1.6,2.59,2.59,0,0,0,1.1.7,9.72,9.72,0,0,0,1.8.1,8.72,8.72,0,0,0,3-.4,3.74,3.74,0,0,0,2-1.2,4.72,4.72,0,0,0,.9-2.6h1.8l-.3,6-18.8.3v-2c.6,0,1.1-.1,1.5-.1a1.51,1.51,0,0,0,.8-.4,2,2,0,0,0,.4-.8,6.18,6.18,0,0,0,.1-1.5l-.2-9.8a7.75,7.75,0,0,0-.2-1.9,1.09,1.09,0,0,0-.8-.8,7.75,7.75,0,0,0-1.9-.2v-2Z" transform="translate(-105.7 -249.8)"/><path class="cls-3" d="M238.27,542l-.9,7.1-2-.3a6.44,6.44,0,0,0-1.1-4.3,6,6,0,0,0-3.8-2.1,4.7,4.7,0,0,0-4.8,1.9,14.56,14.56,0,0,0-2.3,5.7,14,14,0,0,0,0,4.1,5.79,5.79,0,0,0,1.6,3.1,5.47,5.47,0,0,0,3.5,1.6,7.76,7.76,0,0,0,5.4-1.2,9.68,9.68,0,0,0,2.2-1.9l1.6,1.7a12.84,12.84,0,0,1-2.3,1.9,10.78,10.78,0,0,1-2.4,1.2,10.89,10.89,0,0,1-2.6.5,16.17,16.17,0,0,1-3-.2,13.14,13.14,0,0,1-4.1-1.3,11.47,11.47,0,0,1-3.2-2.5,8.9,8.9,0,0,1-1.9-3.6,10.25,10.25,0,0,1-.2-4.3,10,10,0,0,1,2.3-5,11,11,0,0,1,10-3.8,15.83,15.83,0,0,1,3.1.9,6.42,6.42,0,0,1,2.5,1.8,2.4,2.4,0,0,0,.7-1.2Z" transform="translate(-105.7 -249.8)"/><path class="cls-3" d="M208.17,534.41l-1.8,5.3-1.7-.6a6,6,0,0,0-.2-2.3,5.33,5.33,0,0,0-1.3-2,4.66,4.66,0,0,0-2-1.2,5,5,0,0,0-2.1-.2,1.48,1.48,0,0,0-1.3,1.2,2,2,0,0,0,.1,1.5,7.89,7.89,0,0,0,1.2,1.5l2.5,2.4a16.39,16.39,0,0,1,2.3,2.4,6.77,6.77,0,0,1,1.2,2.4,6.28,6.28,0,0,1-.2,3,6.51,6.51,0,0,1-5.3,4.5,7.31,7.31,0,0,1-3.8-.5,10.05,10.05,0,0,1-2.9-1.5,18.44,18.44,0,0,1-2.5-2.3l-.8,1.3-1.8-.6,2.1-6.2,1.8.6a6.63,6.63,0,0,0,.5,2.8,7.76,7.76,0,0,0,1.6,2.4,6.08,6.08,0,0,0,2.4,1.5,3.61,3.61,0,0,0,3.1-.3,2.73,2.73,0,0,0,.9-1.2,2,2,0,0,0,0-1.5,6,6,0,0,0-.9-1.5A8,8,0,0,0,198,544a15.38,15.38,0,0,1-1.3-1.2,17.5,17.5,0,0,1-2.4-2.5,5.1,5.1,0,0,1-1.2-2.3,5.24,5.24,0,0,1,.2-3,5,5,0,0,1,1.9-2.7,6,6,0,0,1,3-1.1,8.28,8.28,0,0,1,3.4.5,10.56,10.56,0,0,1,4.3,3l.7-.9Z" transform="translate(-105.7 -249.8)"/><path class="cls-3" d="M180.87,526.91h0a9.68,9.68,0,0,0-1.4-3.3,12.45,12.45,0,0,0-4.3-3.9,13,13,0,0,0-4.1-1.6,9.45,9.45,0,0,0-4.1,0,8.65,8.65,0,0,0-3.4,1.5.1.1,0,0,0-.1.1c-.1,0-.1.1-.2.1a10.45,10.45,0,0,0-2.9,3.3,8.94,8.94,0,0,0-1.2,2.9,12.22,12.22,0,0,0-.3,2.6,11.71,11.71,0,0,0,.4,2.6v.1a11.51,11.51,0,0,0,1.2,2.5,12.45,12.45,0,0,0,4.3,3.9,13,13,0,0,0,4.1,1.6,9.45,9.45,0,0,0,4.1,0c.3-.1.6-.1.9-.2a8.75,8.75,0,0,0,2.2-1,2.09,2.09,0,0,0,.6-.4h0a9.72,9.72,0,0,0,2.7-3c.1-.1.1-.2.2-.3a6.63,6.63,0,0,0,.9-1.9h0a11.2,11.2,0,0,0,.6-3.5v-.1A6.48,6.48,0,0,0,180.87,526.91Zm-4.1-.5a8,8,0,0,1-.5,2.1,19.55,19.55,0,0,1-1.2,2.6h0a.76.76,0,0,0-.2.4h0l-.6.9c-.5.7-1,1.4-1.5,2a8.64,8.64,0,0,1-1.4,1.3c-.2.1-.3.3-.5.4a4.49,4.49,0,0,1-1.8.7,4.94,4.94,0,0,1-3.2-.8,5.09,5.09,0,0,1-2.1-2h0a2.84,2.84,0,0,1-.4-1.2,3.75,3.75,0,0,1-.1-1.1,11.78,11.78,0,0,1,.4-2.5c.1-.3.2-.7.3-1a.35.35,0,0,1,.1-.2,18.65,18.65,0,0,1,1-2,15,15,0,0,1,2.4-3.1c.2-.1.3-.3.5-.4s.3-.2.4-.3a7,7,0,0,1,2.3-1.1,4.29,4.29,0,0,1,3.3.4c.1,0,.1.1.2.1a4.43,4.43,0,0,1,2.6,4.3Z" transform="translate(-105.7 -249.8)"/><path class="cls-3" d="M146.77,499l-2.1,14.8a6.46,6.46,0,0,1-.6,2.1l6.5-7.2a3.78,3.78,0,0,0,.9-1.3,1.42,1.42,0,0,0-.1-1.1,5.34,5.34,0,0,0-1.1-1.3l-.3-.3,1.4-1.5,6.2,5.8-1.4,1.5-.3-.3a3.47,3.47,0,0,0-1.9-1.1,3,3,0,0,0-1.8,1.1l-10.3,11-3-2.8,2.2-17.2a4.47,4.47,0,0,1,.6-2l-7.7,8.4a2.92,2.92,0,0,0-.8,1.4,1.38,1.38,0,0,0,.3,1.2,5.83,5.83,0,0,0,1.1,1.3l-1.4,1.5-6.1-5.6,1.4-1.5a3.28,3.28,0,0,1,.8.6,6.78,6.78,0,0,0,.9.6.8.8,0,0,0,.8-.1,3.14,3.14,0,0,0,1-.8l7-7.6a6.44,6.44,0,0,0,1.2-1.5,1.08,1.08,0,0,0,0-1.1,6.38,6.38,0,0,0-1.2-1.4l1.4-1.5Z" transform="translate(-105.7 -249.8)"/><path class="cls-1" d="M296.26,555.58l8.18-251-10.19,24-41.31,36.58c-4.81,9.25-9.51,18.6-14.32,27.85-2.42,6.82-4.84,13.55-7.26,20.37l12,32.71,29.91,61.41Z" transform="translate(-105.7 -249.8)"/></g></svg>