<svg width="155" height="64" viewBox="0 0 155 64" fill="none" xmlns="http://www.w3.org/2000/svg">
<path d="M155 36.9685H34.2979V61.5854H155V36.9685Z" fill="#5E4DCD"/>
<path d="M44.7207 15.2305H51.6889C53.3565 15.2305 54.8255 15.5481 56.0961 16.1834C57.3666 16.8187 58.3592 17.712 59.0739 18.8634C59.7886 20.0149 60.1261 21.3648 60.1261 22.8935C60.1261 24.4221 59.7688 25.772 59.0739 26.9235C58.3592 28.0749 57.3666 28.9683 56.0961 29.6035C54.8255 30.2388 53.3565 30.5565 51.6889 30.5565H44.7207V15.2305ZM51.4903 27.6382C53.019 27.6382 54.2498 27.2014 55.163 26.3478C56.0762 25.4941 56.5328 24.3427 56.5328 22.8736C56.5328 21.4045 56.0762 20.2531 55.163 19.3995C54.2498 18.5458 53.019 18.1091 51.4903 18.1091H48.2544V27.6382H51.4903Z" fill="#5E4DCD"/>
<path d="M62.7269 16.5802C62.3299 16.2229 62.1313 15.7663 62.1313 15.2303C62.1313 14.6943 62.3299 14.2377 62.7269 13.8803C63.124 13.523 63.6401 13.3245 64.2555 13.3245C64.8908 13.3245 65.3871 13.5031 65.7842 13.8406C66.1812 14.198 66.3797 14.6347 66.3797 15.1509C66.3797 15.7266 66.1812 16.1832 65.7842 16.5604C65.3871 16.9376 64.871 17.1163 64.2555 17.1163C63.6401 17.1361 63.124 16.9574 62.7269 16.5802ZM62.5482 18.7838H65.9628V30.5563H62.5482V18.7838Z" fill="#5E4DCD"/>
<path d="M81.2887 18.7837V28.5908C81.2887 30.7547 80.7329 32.3627 79.6013 33.4149C78.4697 34.4671 76.8418 34.9832 74.6779 34.9832C73.5463 34.9832 72.4545 34.8442 71.442 34.5663C70.4295 34.2884 69.5759 33.8913 68.9009 33.3553L70.2509 30.8936C70.7472 31.3105 71.3824 31.6282 72.1368 31.8664C72.8912 32.1046 73.6456 32.2237 74.4198 32.2237C75.611 32.2237 76.4646 31.9657 77.0403 31.4297C77.5962 30.8936 77.8741 30.0995 77.8741 29.0077V28.5114C76.9808 29.4841 75.7499 29.9804 74.1618 29.9804C73.0897 29.9804 72.0971 29.7422 71.2038 29.2658C70.3104 28.7893 69.5957 28.1143 69.0597 27.2607C68.5436 26.407 68.2656 25.4144 68.2656 24.2828C68.2656 23.1512 68.5237 22.1586 69.0597 21.305C69.5759 20.4513 70.2906 19.7763 71.2038 19.2999C72.0971 18.8234 73.0897 18.5852 74.1618 18.5852C75.8691 18.5852 77.1595 19.1411 78.0528 20.2727V18.7639H81.2887V18.7837ZM77.0602 26.3872C77.6359 25.8512 77.9337 25.1563 77.9337 24.3027C77.9337 23.449 77.6359 22.7542 77.0602 22.2182C76.4845 21.6822 75.7499 21.4241 74.8367 21.4241C73.9235 21.4241 73.189 21.6822 72.6133 22.2182C72.0376 22.7542 71.7398 23.449 71.7398 24.3027C71.7398 25.1563 72.0376 25.8512 72.6133 26.3872C73.189 26.9232 73.9434 27.1813 74.8367 27.1813C75.7499 27.1813 76.4845 26.9232 77.0602 26.3872Z" fill="#5E4DCD"/>
<path d="M84.6439 16.5802C84.2469 16.2229 84.0483 15.7663 84.0483 15.2303C84.0483 14.6943 84.2469 14.2377 84.6439 13.8803C85.041 13.523 85.5571 13.3245 86.1725 13.3245C86.8078 13.3245 87.3041 13.5031 87.7012 13.8406C88.0982 14.198 88.2967 14.6347 88.2967 15.1509C88.2967 15.7266 88.0982 16.1832 87.7012 16.5604C87.3041 16.9376 86.788 17.1163 86.1725 17.1163C85.5571 17.1361 85.041 16.9574 84.6439 16.5802ZM84.4652 18.7838H87.8798V30.5563H84.4652V18.7838Z" fill="#5E4DCD"/>
<path d="M98.6597 29.9805C98.3222 30.2386 97.9053 30.4173 97.4288 30.5364C96.9325 30.6555 96.4164 30.7151 95.8804 30.7151C94.4708 30.7151 93.3988 30.3577 92.6246 29.643C91.8503 28.9284 91.4731 27.8762 91.4731 26.4865V21.6426H89.6467V19.0221H91.4731V16.1633H94.8877V19.0221H97.8259V21.6426H94.8877V26.4468C94.8877 26.9431 95.0069 27.3203 95.2649 27.5983C95.523 27.8762 95.8804 27.9953 96.3568 27.9953C96.8928 27.9953 97.3494 27.8563 97.7266 27.5586L98.6597 29.9805Z" fill="#5E4DCD"/>
<path d="M109.538 19.8956C110.511 20.7691 111.007 22.0794 111.007 23.8264V30.5563H107.811V29.0872C107.176 30.1791 105.965 30.735 104.218 30.735C103.305 30.735 102.531 30.5762 101.856 30.2784C101.2 29.9806 100.684 29.5438 100.327 29.0078C99.9696 28.4718 99.8108 27.8564 99.8108 27.1616C99.8108 26.0697 100.228 25.1962 101.042 24.5808C101.875 23.9455 103.146 23.6477 104.853 23.6477H107.573C107.573 22.9132 107.355 22.3375 106.898 21.9206C106.441 21.5235 105.766 21.325 104.853 21.325C104.218 21.325 103.603 21.4243 103.007 21.6228C102.392 21.8213 101.895 22.0794 101.459 22.4169L100.228 20.0346C100.863 19.578 101.637 19.2405 102.531 18.9824C103.424 18.7442 104.357 18.6052 105.31 18.6052C107.156 18.6052 108.566 19.042 109.538 19.8956ZM106.62 28.0351C107.077 27.7571 107.394 27.3601 107.593 26.8439V25.6329H105.25C103.841 25.6329 103.146 26.0895 103.146 27.0028C103.146 27.4395 103.325 27.7968 103.662 28.0351C104 28.2932 104.476 28.4123 105.072 28.4123C105.647 28.4321 106.164 28.2932 106.62 28.0351Z" fill="#5E4DCD"/>
<path d="M114.085 14.3169H117.5V30.5561H114.085V14.3169Z" fill="#5E4DCD"/>
<path d="M46.2295 56.6024C45.098 56.2649 44.1847 55.848 43.5098 55.312L44.7208 52.632C45.3759 53.1084 46.1501 53.5055 47.0633 53.7834C47.9765 54.0812 48.8699 54.2201 49.7831 54.2201C50.7956 54.2201 51.5301 54.0613 52.0066 53.7635C52.483 53.4657 52.7212 53.0687 52.7212 52.5724C52.7212 52.2151 52.5823 51.8974 52.2845 51.6592C51.9867 51.421 51.6294 51.2224 51.1926 51.0835C50.7559 50.9445 50.1404 50.7857 49.3861 50.607C48.2148 50.3291 47.2619 50.0512 46.5273 49.7732C45.7928 49.4953 45.1377 49.0585 44.6215 48.4431C44.0855 47.8277 43.8274 47.0138 43.8274 45.9814C43.8274 45.0881 44.0656 44.294 44.5421 43.5595C45.0185 42.8448 45.7531 42.269 46.7258 41.8323C47.6986 41.4154 48.8897 41.197 50.2794 41.197C51.2522 41.197 52.2051 41.3161 53.1381 41.5544C54.0712 41.7926 54.8851 42.1301 55.5998 42.5668L54.5079 45.2667C53.0984 44.4727 51.6691 44.0558 50.2596 44.0558C49.2669 44.0558 48.5324 44.2146 48.0559 44.5322C47.5795 44.8498 47.3413 45.2667 47.3413 45.8028C47.3413 46.3189 47.6192 46.716 48.1552 46.9741C48.7111 47.2321 49.5449 47.4902 50.6566 47.7284C51.8279 48.0064 52.7808 48.2843 53.5153 48.5622C54.2499 48.8402 54.905 49.2769 55.4212 49.8725C55.9572 50.4681 56.2152 51.282 56.2152 52.2945C56.2152 53.168 55.977 53.9621 55.4807 54.6966C54.9844 55.4113 54.2499 55.987 53.2771 56.4237C52.3043 56.8406 51.1132 57.059 49.7037 57.059C48.5324 57.0987 47.3611 56.9201 46.2295 56.6024Z" fill="#BABABA"/>
<path d="M60.7016 56.2255C59.709 55.7093 58.9546 54.9946 58.3987 54.0616C57.8429 53.1484 57.5649 52.0962 57.5649 50.9249C57.5649 49.7536 57.8429 48.7213 58.3987 47.7882C58.9546 46.875 59.7288 46.1405 60.7016 45.6243C61.6942 45.1082 62.8059 44.8501 64.0368 44.8501C65.2676 44.8501 66.3794 45.1082 67.372 45.6243C68.3447 46.1405 69.119 46.8552 69.6749 47.7882C70.2307 48.7014 70.5086 49.7536 70.5086 50.9249C70.5086 52.0962 70.2307 53.1285 69.6749 54.0616C69.119 54.9748 68.3447 55.7093 67.372 56.2255C66.3992 56.7416 65.2875 56.9997 64.0368 56.9997C62.8059 56.9997 61.6942 56.7416 60.7016 56.2255ZM66.2007 53.3072C66.7566 52.7116 67.0345 51.9175 67.0345 50.9249C67.0345 49.9323 66.7566 49.1382 66.2007 48.5426C65.6448 47.9471 64.9103 47.6493 64.0368 47.6493C63.1633 47.6493 62.4288 47.9471 61.8729 48.5426C61.317 49.1382 61.0192 49.9323 61.0192 50.9249C61.0192 51.9175 61.2972 52.7116 61.8729 53.3072C62.4486 53.9027 63.1633 54.2005 64.0368 54.2005C64.9103 54.2005 65.6448 53.9027 66.2007 53.3072Z" fill="#BABABA"/>
<path d="M72.772 40.5818H76.1866V56.821H72.772V40.5818Z" fill="#BABABA"/>
<path d="M91.2347 45.0486V56.821H87.9988V55.4313C87.5422 55.9475 87.0062 56.3247 86.3709 56.6026C85.7356 56.8806 85.0606 56.9997 84.3261 56.9997C82.7776 56.9997 81.5468 56.5629 80.6534 55.6696C79.7402 54.7762 79.3035 53.466 79.3035 51.6991V45.0486H82.7181V51.2028C82.7181 53.1086 83.5122 54.0417 85.1003 54.0417C85.9143 54.0417 86.5694 53.7836 87.0657 53.2476C87.562 52.7116 87.8201 51.9175 87.8201 50.8653V45.0486H91.2347Z" fill="#BABABA"/>
<path d="M102.014 56.265C101.677 56.5231 101.26 56.7017 100.784 56.8208C100.287 56.9399 99.7711 56.9995 99.2351 56.9995C97.8256 56.9995 96.7536 56.6422 95.9793 55.9275C95.2051 55.2128 94.8279 54.1606 94.8279 52.771V47.927H93.0015V45.3065H94.8279V42.4478H98.2425V45.3065H101.181V47.927H98.2425V52.7313C98.2425 53.2276 98.3616 53.6048 98.6197 53.8827C98.8777 54.1606 99.2351 54.2797 99.7115 54.2797C100.248 54.2797 100.704 54.1408 101.081 53.843L102.014 56.265Z" fill="#BABABA"/>
<path d="M104.099 42.8647C103.702 42.5073 103.504 42.0507 103.504 41.5147C103.504 40.9787 103.702 40.5221 104.099 40.1648C104.496 39.8074 105.012 39.6089 105.628 39.6089C106.263 39.6089 106.759 39.7876 107.156 40.125C107.554 40.4824 107.752 40.9191 107.752 41.4353C107.752 42.011 107.554 42.4676 107.156 42.8448C106.759 43.222 106.243 43.4007 105.628 43.4007C105.012 43.4007 104.496 43.222 104.099 42.8647ZM103.94 45.0484H107.355V56.8208H103.94V45.0484Z" fill="#BABABA"/>
<path d="M112.794 56.2255C111.802 55.7093 111.047 54.9946 110.492 54.0616C109.936 53.1484 109.658 52.0962 109.658 50.9249C109.658 49.7536 109.936 48.7213 110.492 47.7882C111.047 46.875 111.822 46.1405 112.794 45.6243C113.787 45.1082 114.899 44.8501 116.13 44.8501C117.36 44.8501 118.472 45.1082 119.465 45.6243C120.438 46.1405 121.212 46.8552 121.768 47.7882C122.323 48.7014 122.601 49.7536 122.601 50.9249C122.601 52.0962 122.323 53.1285 121.768 54.0616C121.212 54.9748 120.438 55.7093 119.465 56.2255C118.492 56.7416 117.38 56.9997 116.13 56.9997C114.879 56.9997 113.767 56.7416 112.794 56.2255ZM118.274 53.3072C118.829 52.7116 119.107 51.9175 119.107 50.9249C119.107 49.9323 118.829 49.1382 118.274 48.5426C117.718 47.9471 116.983 47.6493 116.11 47.6493C115.236 47.6493 114.502 47.9471 113.946 48.5426C113.39 49.1382 113.092 49.9323 113.092 50.9249C113.092 51.9175 113.37 52.7116 113.946 53.3072C114.522 53.9027 115.236 54.2005 116.11 54.2005C116.983 54.2005 117.718 53.9027 118.274 53.3072Z" fill="#BABABA"/>
<path d="M135.565 46.1799C136.458 47.0534 136.915 48.3636 136.915 50.0709V56.8207H133.5V50.607C133.5 49.6739 133.301 48.9791 132.885 48.5225C132.468 48.0659 131.892 47.8276 131.118 47.8276C130.264 47.8276 129.569 48.0857 129.053 48.6217C128.537 49.1577 128.279 49.9518 128.279 51.004V56.8207H124.864V45.0483H128.12V46.4181C128.577 45.9218 129.132 45.5446 129.807 45.2667C130.482 44.9887 131.217 44.8696 132.011 44.8696C133.48 44.8696 134.651 45.3064 135.565 46.1799Z" fill="#BABABA"/>
<path d="M141.084 56.6424C140.151 56.4041 139.397 56.1064 138.861 55.7292L139.992 53.2675C140.508 53.605 141.144 53.8829 141.898 54.0814C142.652 54.2998 143.367 54.3991 144.082 54.3991C145.531 54.3991 146.246 54.0417 146.246 53.327C146.246 52.9895 146.047 52.7513 145.65 52.6123C145.253 52.4734 144.657 52.3344 143.824 52.2352C142.851 52.0962 142.057 51.9175 141.441 51.7389C140.806 51.5403 140.27 51.2227 139.814 50.7264C139.357 50.2499 139.119 49.5551 139.119 48.6617C139.119 47.9074 139.337 47.2522 139.774 46.6765C140.211 46.1008 140.826 45.6442 141.66 45.3265C142.494 45.0089 143.466 44.8501 144.578 44.8501C145.412 44.8501 146.246 44.9494 147.06 45.128C147.893 45.3067 148.568 45.5648 149.104 45.8824L147.973 48.3044C146.94 47.7287 145.809 47.4309 144.578 47.4309C143.844 47.4309 143.308 47.5302 142.93 47.7287C142.573 47.9272 142.374 48.2051 142.374 48.5228C142.374 48.8801 142.573 49.1382 142.97 49.297C143.367 49.436 143.982 49.5749 144.856 49.7139C145.829 49.8727 146.603 50.0514 147.218 50.2301C147.834 50.4087 148.37 50.7462 148.826 51.2227C149.283 51.6991 149.501 52.3741 149.501 53.2278C149.501 53.9623 149.283 54.5976 148.846 55.1733C148.41 55.749 147.774 56.1858 146.94 56.5034C146.107 56.821 145.114 56.9799 143.943 56.9799C142.97 56.9997 142.017 56.8806 141.084 56.6424Z" fill="#BABABA"/>
<path d="M38.6258 60.3546C38.5067 59.9377 38.4273 59.4811 38.3677 59.0443L38.4273 59.1039C38.3876 58.826 38.328 58.5282 38.2883 58.2502C37.8913 55.6893 37.4942 53.1482 37.0972 50.5872V50.5674C35.3899 49.5152 32.3723 47.3513 30.0496 43.5198C29.6327 42.825 28.2033 40.3832 27.3894 37.1671C26.7144 34.5466 26.4365 31.4298 27.4291 28.3328C28.0445 26.3873 28.9974 24.9579 30.1687 23.7668C31.9554 21.2058 34.1392 19.0221 36.2435 16.6993C36.2634 16.6795 36.2832 16.6398 36.3229 16.6199C38.7052 14.0788 39.6581 10.4856 39.4397 7.05112C39.3008 4.86736 38.2486 -1.58464 34.7744 0.36089C34.3178 0.61897 30.6253 4.62913 30.6849 4.7681C30.2481 3.79534 29.4739 3.0211 28.6996 2.78287C28.5607 2.74316 28.521 2.84243 28.521 2.88213C28.3423 5.84013 27.4092 8.81798 26.0791 11.101C25.2453 12.5502 24.2726 13.7413 23.5182 14.6943C23.2998 13.8406 23.1211 12.2723 24.4909 11.0216C24.5902 10.9223 24.4909 10.8231 24.4512 10.8032C23.677 10.3268 22.4462 8.93709 22.4064 8.06359C22.3866 7.40846 22.7836 6.69378 23.677 6.59452C23.7763 6.59452 23.8358 6.45555 23.7366 6.37614C22.7836 5.46293 21.5925 5.06589 20.4411 4.64899C20.7587 4.19239 21.4138 2.62405 21.2749 1.01601C21.2947 0.877048 21.116 0.837345 21.0366 0.936606C19.4286 2.70346 18.1779 3.10051 15.6964 3.31888C14.2074 3.438 13.2942 3.63652 12.4406 5.06589C11.3487 5.00633 9.54215 5.6416 8.6885 7.56728C8.25175 8.55989 8.17234 9.77088 8.90688 11.1208C8.94658 11.2002 9.06569 11.2003 9.12525 11.1407C11.6068 8.85768 14.9221 10.962 14.4854 13.92C14.1677 16.4413 13.4332 18.8632 12.0435 20.9874C9.70097 24.5807 11.2097 29.4048 13.2545 34.1098C14.1677 36.2142 15.1802 38.2192 15.8353 40.403C16.1331 41.3559 16.3515 42.3287 16.4905 43.3213C16.6493 44.572 16.6294 45.8624 15.9743 46.9543C15.8155 47.2123 15.6368 47.4506 15.4383 47.6491C14.8824 48.1851 14.267 48.2447 13.5523 47.7682C13.195 47.53 12.8178 47.3712 12.52 47.1528C11.7061 46.5374 10.634 46.855 10.6936 48.0064C10.3362 48.0064 9.99875 48.066 9.82008 48.2447C9.562 48.0263 7.93411 46.6366 6.78268 45.247C5.7305 44.1352 5.17464 43.0434 6.5246 42.1103C9.16496 41.7133 11.3686 39.9861 12.3016 38.3781C12.6193 37.8421 12.8376 37.3457 12.8575 36.909C13.0957 34.4076 11.3289 33.2363 9.5223 33.1172C8.88702 33.0775 8.2319 33.0974 7.55692 33.1569C6.82238 33.2363 6.16725 33.4745 5.45257 33.2165C4.30114 32.8194 4.12247 31.9062 4.14232 31.2908C1.54167 31.8665 1.02551 35.9362 4.38055 36.6708L2.73281 36.8891C1.46226 36.6509 0.727722 35.8767 0.926245 34.5664C-0.264893 35.6782 -0.205336 37.2068 0.529199 38.1597C1.04536 38.9736 1.99827 39.4302 3.30852 39.2913C4.71804 39.1523 6.16726 38.517 7.19958 38.6163C8.98628 38.795 8.96643 41.0581 7.21943 41.2765C6.12755 41.4155 4.75774 41.6736 4.55922 42.825C4.10261 44.4132 2.61369 46.7359 1.20418 47.7285C0.271119 48.3836 0.0725961 49.4954 0.727722 50.4284C4.04306 54.6768 8.54953 58.1708 13.6516 60.573C20.7786 63.8089 29.1761 64.8412 37.2957 62.7766C37.3552 62.7567 37.4148 62.7567 37.4744 62.7369C38.7449 62.1413 38.8442 61.2479 38.6258 60.4935C38.6456 60.4538 38.6258 60.3943 38.6258 60.3546ZM24.8483 49.8924C24.8284 50.3887 24.8086 50.8453 24.7292 51.2622C24.6696 51.6791 24.5505 52.374 24.3917 52.8306C24.1733 53.2673 23.677 53.2276 23.4983 52.8504C23.2204 52.3144 22.8035 52.1159 22.4064 52.1159C21.93 52.1159 21.5329 52.3541 21.2947 52.6519C20.5403 52.235 19.2896 52.5129 19.3293 54.0415C18.3169 53.6048 17.2448 53.1482 16.3118 52.6122C17.6816 52.2945 18.6941 51.6196 19.2698 50.6269C19.7462 49.8329 19.9646 48.8799 19.8058 47.7087C19.7661 47.5895 19.9051 47.5101 20.0043 47.5697C20.3021 47.7285 20.58 47.8675 20.8778 48.0263C20.9572 48.066 21.0366 48.0263 21.0565 47.9469C21.791 46.1205 21.1756 42.3287 20.1433 40.264C20.0639 40.1449 20.2227 40.0258 20.322 40.1052C23.2204 42.1302 24.3917 45.3065 24.7292 48.066C24.8086 48.7211 24.8681 49.3365 24.8483 49.8924Z" fill="#5E4DCD"/>
<path fill-rule="evenodd" clip-rule="evenodd" d="M37.2359 56.7017L37.3749 57.6149C37.5139 58.6076 37.7918 59.7987 37.9903 60.7715C38.1293 61.4663 37.6528 62.0222 37.2359 62.042C33.1265 63.1736 28.7987 63.3523 23.5776 62.7567C17.205 61.7442 11.3088 59.2031 6.50457 55.2525C5.09505 54.1011 3.7451 52.8504 2.55396 51.4409C2.19662 51.0041 1.77972 50.6071 1.44223 50.1505C0.945921 49.4954 1.10474 48.999 1.34297 48.6417C1.46208 48.463 1.6209 48.3439 1.75987 48.2248C2.8716 47.2322 4.10244 45.5249 4.63845 44.5521C4.81712 44.2146 4.95609 44.0161 5.0752 43.6389C5.23402 44.3536 5.77003 44.9889 6.42516 45.7631C7.45748 47.0337 8.86699 48.2645 9.8199 49.0983C10.1375 49.7733 10.475 50.4284 11.0507 51.1034C11.1103 50.9247 11.1699 50.5277 11.3882 50.3291C11.964 50.8056 12.5794 51.2424 13.2345 51.6195C13.572 52.1953 14.0087 52.7313 14.1279 52.8901C14.1874 52.8504 14.1874 52.7511 14.3264 52.3342C16.0535 53.3666 17.7807 54.2202 19.5277 54.8356C19.7461 55.3518 20.0835 55.7091 20.5004 56.0466C20.4806 56.0268 20.6791 55.6297 20.8181 55.3716C20.9173 55.4113 20.9968 55.4312 21.096 55.4709L21.1357 55.5106C21.3938 56.0268 21.5526 56.4238 22.0688 56.94C22.1482 56.662 22.168 56.126 22.2872 55.8481C22.5055 55.9076 22.7041 55.9474 22.9026 56.0268C23.3195 56.7017 23.7959 57.4164 24.4312 57.6149C24.3716 57.1186 24.4709 56.7216 24.6099 56.404C25.662 56.7017 28.223 57.0194 29.3149 57.0789C31.4391 57.2179 34.0993 57.1981 37.2359 56.7017Z" fill="#6A61D8"/>
<path d="M10.8921 48.7608C10.3362 48.9792 10.8325 49.7335 10.9119 50.0909C11.0112 49.6144 11.2295 49.5946 11.3685 49.2769C11.4082 48.86 11.1104 48.6615 10.8921 48.7608Z" fill="#BABABA"/>
<path d="M13.5125 49.7732C13.3339 50.1901 13.5324 50.7063 13.8897 51.5202C13.9691 50.5673 14.0882 50.21 14.2074 49.9519C14.4654 49.2967 13.6912 49.3364 13.5125 49.7732Z" fill="#BABABA"/>
<path d="M21.4336 16.3421C21.4137 16.4215 21.4733 16.5605 21.652 16.4811L22.2475 15.9451C22.446 15.7664 22.6247 15.5877 22.8034 15.4091C22.8629 15.3297 22.9225 15.3495 22.8828 15.1907C22.1483 13.2253 22.6843 11.8357 23.2401 11.1408C23.2997 11.0614 23.2798 11.0019 23.2004 10.9423C22.7041 10.6247 22.3269 10.1681 22.0093 9.53278C22.0093 9.45337 21.7512 9.39382 21.7711 9.6122C22.049 12.0342 21.7711 14.4165 21.4336 16.3421Z" fill="#BABABA"/>
<path d="M19.3099 18.9824C20.3422 17.3943 21.2951 14.7341 20.6995 12.59C20.6797 12.451 20.4812 12.451 20.4415 12.5702C19.6474 15.1311 15.1409 18.367 13.4932 19.9751C11.4682 21.6228 11.3491 25.891 12.5601 27.8961C12.6395 28.0351 12.838 27.9557 12.7983 27.8167C12.5402 26.0896 12.6395 22.8139 14.2078 21.3052C14.3865 21.1861 14.4659 21.4243 14.4064 21.464C13.8306 22.8735 13.9498 24.4815 14.1086 25.5337C14.1681 25.7322 14.3468 25.633 14.3667 25.5536C14.9225 23.8264 16.074 22.6353 17.2651 21.3846C17.9401 20.6302 18.7342 19.8361 19.3099 18.9824Z" fill="#BABABA"/>
<path d="M12.6588 7.78577C12.7779 7.6071 12.8771 7.40858 12.9566 7.1902C12.9963 7.07109 13.1352 7.07109 13.1948 7.17035C13.4132 7.52769 13.2742 8.28208 13.2146 8.61957C13.2146 8.71883 13.2146 8.71883 13.294 8.77839C13.4926 8.87765 13.9293 8.8975 14.6241 8.67913C14.7036 8.65928 14.783 8.71883 14.783 8.79824C14.8028 9.43352 14.505 9.96953 14.3859 10.5254C14.3661 10.6445 14.4852 10.7239 14.5844 10.6644C14.7036 10.5651 14.8227 10.4857 14.9418 10.4063C15.319 10.2276 15.6565 10.4261 15.7557 10.7835C15.9344 11.657 15.7359 12.8283 15.5572 13.7415C15.5374 13.9201 15.7359 13.94 15.7954 13.8407C16.53 12.9077 16.9072 11.9349 16.8873 10.7835C16.8873 10.6842 17.0064 10.585 17.1255 10.7041C17.4035 11.0217 17.4829 11.3393 17.463 12.054C17.463 12.1533 17.602 12.2525 17.7013 12.1136C18.1182 11.3393 18.1777 10.5055 18.0785 9.63204C18.0586 9.51292 18.2174 9.43351 18.2968 9.53278C18.7137 9.94967 18.813 10.4658 18.9321 11.0813C18.9718 11.2401 19.1505 11.2401 19.1902 11.0813C19.4284 9.85042 19.349 8.87765 18.9321 8.10341C18.8527 8.00415 18.9718 7.84533 19.1108 7.92474C19.5674 8.20267 19.9843 8.79824 20.3813 9.71145C20.421 9.83056 20.6195 9.81071 20.6195 9.65189C20.6394 8.95706 20.5203 8.26223 20.0041 7.40858C19.7659 7.03139 19.6666 6.83286 20.2026 6.55493C20.5203 6.37626 20.9769 6.35641 21.3739 6.41597C21.5328 6.45567 21.5725 6.25714 21.4732 6.17774C20.2225 5.38364 18.7534 5.30423 17.7608 5.38364C18.8924 4.74837 19.7659 4.39103 20.3019 2.64403C20.3615 2.54476 20.2026 2.42565 20.1034 2.4852C18.4755 3.65649 16.7285 3.75576 15.6168 3.7359C15.2594 3.75576 14.9815 3.7756 14.7631 3.87487C13.8698 4.27191 14.1278 5.04615 15.0808 5.08586C15.8351 5.12556 16.927 4.80793 17.7013 4.49029C17.7807 4.45058 17.9792 4.58955 17.8005 4.72852C17.5623 4.84763 17.2447 5.0263 16.7682 5.20497C16.3116 5.38364 16.0337 5.68143 16.3314 6.11818C16.3712 6.17774 16.4109 6.23729 16.4704 6.3167C16.5101 6.35641 16.4704 6.57478 16.2917 6.47552C15.855 6.21744 15.2594 5.87995 14.783 5.70128C14.3065 5.52261 14.0286 5.97921 14.1477 6.3167C14.2073 6.47552 14.3264 6.59464 14.5646 6.61449C14.3462 6.67405 14.108 6.61449 13.9293 6.43582C13.9095 6.41597 13.8896 6.39611 13.8499 6.35641C13.8102 6.29685 13.7506 6.25715 13.6712 6.19759C13.1352 5.64172 12.5198 5.46305 11.9441 5.50276C10.4155 5.60202 9.24417 7.1108 9.78018 9.11588C9.80004 9.21514 9.91915 9.25485 9.99856 9.17544C10.2169 8.97691 10.4949 8.83795 11.1897 8.71883C11.8448 8.54016 12.3411 8.26223 12.6588 7.78577Z" fill="#BABABA"/>
<path d="M26.6551 50.1904C26.5956 50.0713 26.7345 49.9323 26.8537 50.0316C27.2507 50.3492 27.8661 50.7662 28.6007 50.9448C28.7595 50.9845 28.819 50.7661 28.6999 50.7066C27.608 49.9522 27.0125 49.1184 26.5956 48.2648C26.536 48.1854 26.6154 48.0067 26.7742 48.0861C27.3301 48.503 28.2433 48.9596 28.819 49.0191C28.9183 49.0191 28.9779 48.9596 28.958 48.8603C28.819 48.3442 28.422 47.5699 27.886 46.6964C27.2507 45.6641 26.2382 43.8774 25.3052 43.1826C25.0868 42.9443 24.392 43.0436 24.5309 43.6987C24.6302 43.8774 24.6302 43.8575 24.6699 43.9767C24.789 44.2943 24.928 44.5127 25.0669 44.9891C25.5831 46.5178 25.8809 48.3243 25.7618 50.1904C25.6427 51.3617 26.0794 51.7588 26.2779 52.1757C26.7941 53.208 25.7618 53.4065 25.1662 53.5058C24.3324 53.6249 24.1339 54.3793 24.9081 55.1138C25.0868 55.2925 25.325 55.3719 25.603 55.4116C26.0993 55.491 26.5956 55.5903 27.072 55.6697C27.35 55.7094 27.6279 55.7094 27.9654 55.63C28.4815 55.491 28.958 55.1535 29.0771 54.2403C29.1168 53.5455 28.1639 52.4933 27.4294 51.4808C27.0522 50.9647 26.7941 50.5279 26.6551 50.1904Z" fill="#BABABA"/>
<path d="M17.6022 44.6912C17.5625 44.5523 17.3839 44.5523 17.3441 44.7111C17.2647 46.3985 17.0662 47.2919 16.2126 48.1257C16.153 48.2051 16.153 48.2249 16.1927 48.3242C17.1853 49.2374 16.7089 50.4285 16.5501 51.4609C16.5501 51.5601 16.5699 51.6197 16.7287 51.5998C18.1581 51.1035 18.9323 49.5153 18.8926 48.4632C18.8926 47.6691 18.6743 47.0536 18.3169 46.4581C18.1184 46.1603 17.8206 45.4655 17.6022 44.6912Z" fill="#BABABA"/>
<path d="M26.1984 38.914C25.0072 38.2986 24.1536 37.4847 23.9352 36.6112C23.9153 36.5715 23.8955 36.4722 23.8955 36.4325C23.9153 36.3729 23.955 36.3134 24.0742 36.3332C24.4315 36.4523 25.1462 36.7104 25.9601 36.5119C26.0594 36.4722 26.1587 36.3729 26.0197 36.2538C25.2455 35.8568 23.4389 34.7451 22.2279 33.5142C20.7191 31.9856 20.2824 29.6033 20.8779 27.5387C22.3073 22.5557 29.7321 19.7566 34.1194 14.9324C35.4892 13.4237 36.8591 11.4384 37.1171 9.96937C37.137 9.81055 36.9385 9.77084 36.8789 9.88996C36.7002 10.1679 36.4024 11.4384 35.6679 12.034C35.5686 12.1531 35.4892 12.1134 35.4297 12.0142C35.3701 11.8752 35.251 11.6171 35.1518 11.5178C34.9532 11.359 34.8738 11.5973 34.9532 11.6767C34.7944 12.5105 34.2385 13.8803 33.8812 14.0986C33.7621 14.1582 33.7025 14.0986 33.6628 14.0192C33.6033 13.92 33.5239 13.7413 33.504 13.5825C33.3849 13.4435 33.3055 13.5229 33.2658 13.6023C33.0673 14.2178 32.3923 15.667 31.8761 16.0045C31.7372 16.0839 31.6776 16.1434 31.5982 15.9648C31.5188 15.8258 31.5585 15.5876 31.5386 15.4288C31.4989 15.2898 31.3401 15.2699 31.3004 15.4089C31.2011 15.8059 30.4666 17.1361 29.7122 17.7316C29.6924 17.7912 29.5137 17.9103 29.474 17.6919C29.4343 17.5331 29.5534 17.1758 29.5335 16.9971C29.5137 16.7986 29.3549 16.7986 29.2953 16.9574C29.1166 17.2949 28.5012 18.5257 27.5086 19.4191C27.4689 19.4786 27.2902 19.5779 27.2704 19.3794C27.2902 19.2205 27.3498 18.8632 27.3498 18.6647C27.3101 18.4662 27.1711 18.486 27.1116 18.5853C26.5756 19.4389 25.0072 21.2852 23.8161 21.7616C23.6374 21.8212 23.558 21.6822 23.6374 21.5631C26.1388 17.6522 30.7445 16.1037 34.1591 11.7164C35.112 10.5054 36.9583 7.58709 37.1568 5.9592C37.1767 5.74082 36.9385 5.78053 36.9186 5.85993C36.5216 7.22974 35.9061 8.44074 35.3503 9.0363C35.2709 9.15542 35.0922 9.11572 35.112 8.9966C35.1716 8.63926 35.2907 8.00399 35.251 8.00399C35.2907 7.88487 35.0922 7.76576 35.0128 7.90473C34.7349 9.33409 34.1988 10.5252 33.6033 11.4583C33.5636 11.5774 33.3452 11.5973 33.3452 11.3987C33.3253 11.0215 33.4643 10.7436 33.3253 10.4855C33.2459 10.3069 33.0474 10.426 33.0673 10.5252C32.7298 11.9546 32.4518 12.6296 31.5982 13.5428C31.4791 13.7016 31.2607 13.5229 31.3997 13.384C31.4791 13.0663 31.5386 12.7884 31.5386 12.5502C31.5386 12.3516 31.3203 12.4112 31.3004 12.5105C31.1019 13.1656 30.1093 14.8927 29.3747 15.4883C29.2159 15.6074 29.0769 15.4685 29.1762 15.3295C29.4343 14.9324 29.4938 14.7141 29.5733 14.3964C29.6328 14.2972 29.4938 14.1979 29.3946 14.2575C28.7395 15.3692 27.588 16.9375 26.1587 17.2949C26.0792 17.414 25.841 17.3147 25.9601 17.1162C29.0372 12.9274 32.1938 12.6494 34.7547 6.65403C35.2312 5.44304 35.6084 4.7085 35.5885 3.12032C35.5885 2.98135 35.3701 2.94164 35.3304 3.08061C35.0128 4.01367 34.854 4.50998 34.4966 5.18496C34.4172 5.30407 34.2584 5.28422 34.2385 5.14526C34.1393 4.80777 34.0003 4.45042 33.8812 4.23205C33.7422 4.09308 33.6628 4.21219 33.643 4.2916C33.6628 4.7085 33.8018 6.23713 33.1467 7.38857C33.0673 7.52753 32.8886 7.48783 32.8886 7.32901C32.9084 6.81285 32.8092 6.07831 32.5511 5.78053C32.4518 5.68126 32.3526 5.76068 32.3327 5.84009C32.3923 6.89226 32.4717 8.40103 31.3004 9.85025C31.2011 9.98922 31.0225 9.88996 31.0622 9.77084C31.3997 8.81793 31.4989 7.94443 31.3203 7.52753C31.2806 7.36872 31.1019 7.36871 31.0622 7.54738C30.7842 8.73852 29.7122 11.5178 28.3424 12.709C28.2431 12.8281 28.0446 12.7487 28.1042 12.5899C28.7196 11.4583 29.3946 10.2274 29.8909 8.97675C30.2482 7.94443 30.3078 5.60186 29.4938 4.52983C29.4343 4.43057 29.2755 4.43057 29.2556 4.56953C28.7395 7.7062 27.6674 10.7436 25.9403 13.0862C22.6051 17.8309 19.4684 20.0345 18.6148 26.5063C18.1185 30.2981 19.1706 34.2487 22.1088 37.0876C23.419 38.3582 24.2131 38.7949 26.1388 39.1126C26.2381 39.1523 26.3175 38.9934 26.1984 38.914Z" fill="#BABABA"/>
<path d="M27.2506 43.7779C27.33 43.8176 27.469 43.7184 27.4293 43.639C27.0521 43.0235 26.6948 42.5272 26.3573 42.0905C25.0272 40.403 23.2603 39.6288 21.7913 38.1597C17.7414 34.1099 17.1855 30.4173 17.7017 25.3748C17.6818 25.1962 17.523 25.1962 17.4634 25.2954C15.1407 29.385 15.8554 33.8716 18.9921 37.2465C20.7391 39.1325 22.4265 40.2244 24.5904 41.6934C25.4044 42.2692 26.3176 42.9243 27.2506 43.7779Z" fill="#BABABA"/>
<path d="M30.1292 23.747C31.3997 21.9206 32.8688 20.2927 34.3776 18.6648L33.2063 19.5979L32.0549 20.6699L31.0027 21.8015L30.0498 22.9926L29.1961 24.2433L28.4616 25.5535L27.8462 26.9035L27.5881 27.5983L27.3697 28.313L27.1712 29.0277L27.0124 29.7424L26.8933 30.4769L26.794 31.2115L26.7345 31.9658L26.7146 32.7202L26.7742 34.0305L26.933 35.3209L27.2109 36.5914L27.3697 37.1274C26.6947 34.5069 26.4168 31.3901 27.4094 28.2932C28.0249 26.3675 28.9778 24.9381 30.1292 23.747Z" fill="#00447E"/>
<path d="M36.74 13.3842C37.1768 12.8482 39.1421 9.27481 37.7128 8.20278C37.6532 8.18293 37.6135 8.10352 37.6334 8.04396C38.2289 6.49548 38.2885 5.16538 38.2488 4.13306C38.2289 3.81542 37.2959 4.25217 36.7599 4.5698C36.7599 4.58966 36.5613 4.64922 36.5613 4.4507C36.6805 3.39852 36.5812 2.50517 36.3628 1.63166C36.343 1.55226 36.2636 1.51255 36.204 1.5324C33.6033 2.10812 32.5909 3.77571 30.8836 5.58227C30.963 5.99917 30.963 6.43592 30.9034 6.87267C31.896 5.00656 33.6232 2.88236 35.7275 2.30664C35.807 2.26694 35.9062 2.32649 35.9062 2.4059C36.1246 3.67645 35.8665 5.40361 35.2511 6.73371C35.1717 6.87268 35.3503 7.01164 35.4496 6.87267C35.8864 6.25725 36.6209 5.26464 37.4547 4.92715C37.554 4.88745 37.6532 4.947 37.6532 5.04626C37.6731 6.13814 36.9584 8.28219 35.9459 9.6917C35.8268 9.87038 36.0253 9.96964 36.1246 9.87037C36.8591 9.11599 37.2959 8.61968 37.4745 8.7785C37.5937 9.01672 37.5937 9.39392 37.5143 9.81082C37.1966 11.6571 36.1246 13.3247 34.9335 14.7342C33.1467 16.8584 30.6652 18.6451 28.3822 20.3722C26.5359 21.7619 24.1338 23.2707 22.8434 25.2361C21.2949 27.5985 21.3346 30.5565 23.1412 32.641C23.2206 32.7402 23.439 32.6608 23.3397 32.4822C22.1486 30.8741 21.9897 28.869 22.625 27.0823C23.4191 24.8589 25.3845 23.4494 27.1712 22.0597C30.0895 19.8759 34.3379 16.7591 36.74 13.3842Z" fill="#BABABA"/>
<path fill-rule="evenodd" clip-rule="evenodd" d="M37.0771 50.5674C37.4741 53.1283 37.8712 55.6694 38.2682 58.2304C38.2484 58.2105 38.2285 58.2105 38.2087 58.1907C37.1764 53.2673 36.7198 52.8305 36.7793 51.1034C36.8984 50.8652 36.9977 50.6865 37.0771 50.5674Z" fill="#00528C"/>
<path fill-rule="evenodd" clip-rule="evenodd" d="M23.856 54.8357C24.0148 54.1805 22.6847 54.1408 22.7641 54.8158C22.8435 55.5503 23.9156 56.3246 23.9156 56.5033C23.9751 56.4834 23.5781 55.868 23.856 54.8357ZM22.1884 53.8033C21.8708 53.5055 21.7715 53.585 21.5531 53.7438C21.1362 54.1408 21.4737 54.7562 21.7715 55.5305C21.6722 55.0937 22.3075 54.2202 22.1884 53.8033ZM20.362 53.2276C20.1635 53.6842 19.8855 53.982 20.3024 54.9151C20.4613 54.2401 21.0171 53.6842 20.9576 53.446C21.0965 53.1482 20.5804 53.0688 20.362 53.2276Z" fill="#BABABA"/>
<path fill-rule="evenodd" clip-rule="evenodd" d="M32.2928 57.9727L32.4119 59.0645H32.0148C31.995 58.8263 31.9354 58.6476 31.8362 58.5285C31.7369 58.4293 31.5582 58.3697 31.3001 58.3697L30.4266 58.3896L30.4465 59.6403H30.8237C31.0024 59.6403 31.1413 59.6005 31.2009 59.5013C31.2604 59.4219 31.3001 59.2829 31.3001 59.0844H31.6178L31.6376 60.5336H31.32C31.32 60.3351 31.2803 60.1763 31.2207 60.0969C31.1612 60.0174 31.0222 59.9777 30.8237 59.9777H30.4465L30.4663 60.9704C30.4663 61.1093 30.5061 61.2086 30.5656 61.288C30.6252 61.3476 30.7046 61.4071 30.784 61.427C30.8832 61.4468 31.0024 61.4468 31.1413 61.4468C31.3796 61.4468 31.5781 61.427 31.7369 61.3674C31.8957 61.3277 32.0347 61.2483 32.1339 61.1292C32.2332 61.0101 32.2928 60.8314 32.3126 60.613H32.67L32.6104 61.8042L28.8782 61.8637V61.4667C28.9973 61.4667 29.0965 61.4468 29.1759 61.4468C29.2554 61.427 29.2951 61.4071 29.3348 61.3674C29.3745 61.3277 29.3943 61.2681 29.4142 61.2086C29.434 61.149 29.434 61.0299 29.434 60.9108L29.3943 58.9653C29.3943 58.7866 29.3745 58.6675 29.3546 58.5881C29.3348 58.5087 29.2752 58.4491 29.1958 58.4293C29.1164 58.4094 28.9973 58.3896 28.8186 58.3896V57.9925L32.2928 57.9727Z" fill="#6A61D8"/>
<path fill-rule="evenodd" clip-rule="evenodd" d="M26.3176 58.0122L26.1389 59.4217L25.7419 59.3622C25.7617 59.0049 25.6823 58.7269 25.5235 58.5085C25.3448 58.2902 25.1066 58.1512 24.7691 58.0917C24.372 58.0321 24.0544 58.1512 23.8162 58.4688C23.5978 58.7865 23.439 59.1637 23.3596 59.6004C23.3199 59.8982 23.3199 60.1761 23.3596 60.4144C23.3993 60.6526 23.5184 60.871 23.6772 61.0298C23.836 61.2085 24.0743 61.3077 24.372 61.3474C24.5706 61.3871 24.7492 61.3673 24.9279 61.3276C25.1066 61.2879 25.2853 61.2283 25.4441 61.1092C25.6029 61.0099 25.7419 60.8908 25.8808 60.732L26.1985 61.0695C26.0396 61.2283 25.9007 61.3474 25.7419 61.4467C25.583 61.5459 25.4441 61.6254 25.2654 61.6849C25.1066 61.7445 24.9279 61.7643 24.7492 61.7842C24.5706 61.7842 24.372 61.7842 24.1537 61.7445C23.8559 61.7048 23.578 61.6055 23.3397 61.4864C23.0816 61.3474 22.8831 61.1886 22.7045 60.9901C22.5258 60.7916 22.4067 60.5533 22.3273 60.2754C22.2478 60.0173 22.2479 59.7195 22.2876 59.4217C22.3471 59.0446 22.5059 58.7071 22.7442 58.4291C22.9824 58.1313 23.2802 57.9328 23.6375 57.7939C23.9949 57.6549 24.3522 57.6152 24.7294 57.6747C24.9478 57.7145 25.1463 57.774 25.3448 57.8534C25.5433 57.9328 25.7022 58.0519 25.8411 58.2108C25.9007 58.1512 25.9602 58.0718 25.9801 57.9725L26.3176 58.0122Z" fill="#6A61D8"/>
<path fill-rule="evenodd" clip-rule="evenodd" d="M20.3414 56.5034L19.984 57.5555L19.6465 57.4364C19.6664 57.2776 19.6465 57.1386 19.6068 56.9798C19.5473 56.821 19.4679 56.7019 19.3488 56.5828C19.2296 56.4637 19.0907 56.3842 18.9517 56.3445C18.8127 56.3048 18.6738 56.285 18.5348 56.3048C18.3958 56.3247 18.3164 56.4041 18.2767 56.5431C18.237 56.6423 18.2569 56.7416 18.2966 56.8409C18.3561 56.9401 18.4356 57.0394 18.5348 57.1386L19.0311 57.6151C19.2296 57.7938 19.3885 57.9526 19.4877 58.0916C19.6068 58.2305 19.6664 58.3893 19.726 58.568C19.7657 58.7467 19.7458 58.9452 19.6862 59.1636C19.6068 59.4217 19.4679 59.6202 19.2694 59.779C19.0907 59.9378 18.8723 60.0172 18.6341 60.0569C18.3958 60.0966 18.1378 60.0569 17.8797 59.9577C17.6812 59.8981 17.5025 59.7988 17.304 59.6599C17.1253 59.5209 16.9466 59.3621 16.8077 59.2033L16.6488 59.4614L16.2915 59.3423L16.7084 58.1114L17.0657 58.2305C17.0657 58.429 17.0856 58.6077 17.165 58.7864C17.2444 58.9651 17.3437 59.1239 17.4826 59.2628C17.6216 59.4018 17.7804 59.5011 17.9591 59.5606C18.0584 59.6003 18.1775 59.6202 18.2767 59.6003C18.376 59.6003 18.4753 59.5606 18.5745 59.5011C18.6539 59.4415 18.7135 59.3621 18.7532 59.2628C18.7929 59.1636 18.7929 59.0643 18.7532 58.9651C18.7135 58.8658 18.6539 58.7665 18.5745 58.6673C18.4951 58.568 18.4157 58.4886 18.3164 58.4092C18.2172 58.3298 18.1378 58.2504 18.0584 58.171C17.84 57.9724 17.6812 57.8136 17.5819 57.6747C17.4628 57.5357 17.3834 57.3967 17.3437 57.2181C17.304 57.0394 17.304 56.8409 17.3834 56.6225C17.4628 56.3843 17.5819 56.2056 17.7606 56.0865C17.9392 55.9674 18.1179 55.8879 18.3561 55.8681C18.5745 55.8482 18.7929 55.8879 19.0311 55.9674C19.3289 56.0666 19.6068 56.2651 19.8848 56.5629L20.0237 56.3843L20.3414 56.5034Z" fill="#6A61D8"/>
<path fill-rule="evenodd" clip-rule="evenodd" d="M14.9222 55.0143C14.8626 54.7761 14.7832 54.5577 14.6443 54.3592C14.4259 54.0416 14.148 53.7835 13.7906 53.585C13.5325 53.4261 13.2546 53.3269 12.9767 53.2673C12.6987 53.2078 12.4208 53.2078 12.1627 53.2673C11.9245 53.3269 11.6863 53.4063 11.4877 53.5651C11.4877 53.5651 11.4679 53.5651 11.4679 53.585C11.448 53.585 11.448 53.6048 11.4282 53.6048C11.2098 53.7636 11.0113 53.982 10.8525 54.2599C10.7334 54.4585 10.6539 54.6371 10.6142 54.8357C10.5745 55.0143 10.5547 55.193 10.5547 55.3518C10.5547 55.5305 10.5944 55.6893 10.6341 55.868C10.6341 55.868 10.6341 55.868 10.6341 55.8878C10.6937 56.0665 10.7731 56.2253 10.8723 56.3841C11.0907 56.7018 11.3686 56.9599 11.726 57.1584C11.9841 57.3172 12.262 57.4165 12.5399 57.476C12.8179 57.5356 13.0958 57.5356 13.3539 57.476C13.4134 57.4562 13.473 57.4562 13.5325 57.4363C13.6914 57.3966 13.8303 57.3172 13.9693 57.2378C14.009 57.2179 14.0487 57.1981 14.0884 57.1584C14.3068 56.9996 14.4854 56.801 14.6244 56.5628C14.6443 56.543 14.6443 56.5231 14.6641 56.5033C14.7435 56.3841 14.8031 56.265 14.8428 56.1261C14.9222 55.8878 14.9619 55.6496 14.9619 55.4312V55.4114C14.9619 55.2724 14.9619 55.1335 14.9222 55.0143ZM14.1083 54.9151C14.0884 55.054 14.0685 55.193 14.009 55.332C13.9494 55.4908 13.87 55.6695 13.7708 55.8481C13.7509 55.868 13.7311 55.9077 13.7311 55.9275C13.6914 55.9871 13.6516 56.0467 13.6119 56.1062C13.5127 56.2452 13.4134 56.3841 13.3142 56.5033C13.2348 56.6025 13.1355 56.6819 13.0362 56.7613C12.9965 56.7812 12.9767 56.8209 12.937 56.8407C12.8179 56.9201 12.6987 56.9599 12.5796 56.9797C12.3811 56.9996 12.1627 56.9599 11.9443 56.8209C11.7458 56.7216 11.6267 56.5827 11.5275 56.4238C11.4877 56.3444 11.448 56.265 11.448 56.1856C11.4282 56.1261 11.4282 56.0467 11.4282 55.9672C11.4282 55.8084 11.4679 55.6496 11.5076 55.4709C11.5275 55.4114 11.5473 55.332 11.5672 55.2724C11.5672 55.2526 11.587 55.2327 11.587 55.2327C11.6466 55.0937 11.7061 54.9746 11.7855 54.8357C11.9245 54.5974 12.0833 54.3989 12.262 54.2202C12.3017 54.2004 12.3215 54.1607 12.3612 54.1408C12.3811 54.121 12.4208 54.1011 12.4407 54.0813C12.5796 53.982 12.7384 53.9026 12.8973 53.8629C13.1156 53.8033 13.334 53.8232 13.5524 53.9423C13.5722 53.9423 13.5722 53.9622 13.5921 53.9622C13.9693 54.1805 14.1281 54.4585 14.1083 54.8158C14.1083 54.8357 14.1083 54.8754 14.1083 54.9151Z" fill="#6A61D8"/>
<path fill-rule="evenodd" clip-rule="evenodd" d="M8.1526 49.4757L7.7357 52.4139C7.71585 52.5727 7.67615 52.7117 7.61659 52.8308L8.90699 51.4014C9.00625 51.3021 9.06581 51.2029 9.08566 51.1433C9.10551 51.0639 9.10551 51.0044 9.06581 50.925C9.0261 50.8654 8.96655 50.7661 8.84743 50.6669L8.78788 50.6073L9.06581 50.3095L10.2967 51.461L10.0187 51.7588L9.95916 51.6992C9.80034 51.5602 9.68123 51.4808 9.58197 51.4808C9.48271 51.4808 9.36359 51.5602 9.22463 51.6992L7.17984 53.883L6.58427 53.3271L7.02102 49.9125C7.02102 49.7934 7.06073 49.6743 7.14014 49.5154L5.61151 51.183C5.51225 51.2823 5.47254 51.3816 5.45269 51.461C5.43284 51.5404 5.45269 51.6198 5.51225 51.6992C5.55195 51.7786 5.63136 51.858 5.73062 51.9573L5.45269 52.2551L4.2417 51.1433L4.51963 50.8455C4.55933 50.8654 4.61889 50.9051 4.67845 50.9647C4.75786 51.0242 4.81741 51.0639 4.85712 51.0838C4.89682 51.1036 4.95638 51.1036 5.01594 51.0639C5.0755 51.0441 5.13505 50.9845 5.21446 50.9051L6.60412 49.3963C6.72324 49.2772 6.80265 49.1779 6.84235 49.0985C6.88205 49.0191 6.88205 48.9596 6.84235 48.8802C6.80265 48.8008 6.72324 48.7213 6.60412 48.6022L6.88205 48.3044L8.1526 49.4757Z" fill="#6A61D8"/>
<path d="M38.6457 60.4937V10.6445L36.7796 15.4686L28.8189 22.9927C27.9255 24.8588 27.052 26.7448 26.1586 28.6109C25.7219 29.9807 25.2851 31.3306 24.8484 32.7005L27.449 39.1127L33.7819 51.1035L38.6457 60.4937Z" fill="#5E4DCD"/>
</svg>
