<svg width="103" height="27" viewBox="0 0 103 27" fill="none" xmlns="http://www.w3.org/2000/svg">
<path d="M3.75576 26.7809L18.7678 26.4209V21.3809L6.41976 21.7409V1.0409H0.659756V23.7569C0.659756 25.7369 1.77576 26.8169 3.75576 26.7809ZM18.4052 13.7129C18.4052 21.1289 23.3012 26.7809 31.3652 26.7809C39.3932 26.7809 44.2892 21.1289 44.2892 13.7129C44.2892 6.3329 39.3932 0.680897 31.3652 0.680897C23.3012 0.680897 18.4052 6.3329 18.4052 13.7129ZM24.1652 13.7129C24.1652 8.8529 26.5772 5.7209 31.3652 5.7209C36.1532 5.7209 38.5292 8.8529 38.5292 13.7129C38.5292 18.6089 36.1532 21.7409 31.3652 21.7409C26.5772 21.7409 24.1652 18.6089 24.1652 13.7129ZM46.8115 13.7129C46.8115 21.4889 50.9875 26.7809 58.5835 26.7809C65.5675 26.7809 68.6995 21.6689 68.7355 13.7129H70.1755L69.0955 17.6729V26.4209H74.8555V15.3329C74.8555 13.3529 73.7755 12.2729 71.7955 12.2729H58.5475V16.5929H64.4155C64.4155 20.0129 62.2555 21.7409 58.7995 21.7409C54.6235 21.7409 52.5715 19.3289 52.5715 13.7129C52.5715 8.1329 55.1635 5.7209 59.5915 5.7209C63.4075 5.7209 65.3155 7.1249 65.8915 10.1129H71.6515C70.8955 4.5689 65.9635 0.680897 59.5915 0.680897C52.2475 0.680897 46.8115 5.9729 46.8115 13.7129ZM77.0107 13.7129C77.0107 21.1289 81.9067 26.7809 89.9707 26.7809C97.9987 26.7809 102.895 21.1289 102.895 13.7129C102.895 6.3329 97.9987 0.680897 89.9707 0.680897C81.9067 0.680897 77.0107 6.3329 77.0107 13.7129ZM82.7707 13.7129C82.7707 8.8529 85.1827 5.7209 89.9707 5.7209C94.7587 5.7209 97.1347 8.8529 97.1347 13.7129C97.1347 18.6089 94.7587 21.7409 89.9707 21.7409C85.1827 21.7409 82.7707 18.6089 82.7707 13.7129Z" fill="white"/>
</svg>
